<?xml version="1.0" encoding="utf-8" standalone="no"?>
<!DOCTYPE svg PUBLIC "-//W3C//DTD SVG 1.1//EN"
  "http://www.w3.org/Graphics/SVG/1.1/DTD/svg11.dtd">
<svg xmlns:xlink="http://www.w3.org/1999/xlink" width="936pt" height="324pt" viewBox="0 0 936 324" xmlns="http://www.w3.org/2000/svg" version="1.1">
 <metadata>
  <rdf:RDF xmlns:dc="http://purl.org/dc/elements/1.1/" xmlns:cc="http://creativecommons.org/ns#" xmlns:rdf="http://www.w3.org/1999/02/22-rdf-syntax-ns#">
   <cc:Work>
    <dc:type rdf:resource="http://purl.org/dc/dcmitype/StillImage"/>
    <dc:date>2026-02-20T16:08:40.795133</dc:date>
    <dc:format>image/svg+xml</dc:format>
    <dc:creator>
     <cc:Agent>
      <dc:title>Matplotlib v3.9.4, https://matplotlib.org/</dc:title>
     </cc:Agent>
    </dc:creator>
   </cc:Work>
  </rdf:RDF>
 </metadata>
 <defs>
  <style type="text/css">*{stroke-linejoin: round; stroke-linecap: butt}</style>
 </defs>
 <g id="figure_1">
  <g id="patch_1">
   <path d="M 0 324 
L 936 324 
L 936 0 
L 0 0 
z
" style="fill: #ffffff"/>
  </g>
  <g id="axes_1">
   <g id="patch_2">
    <path d="M 41.07 299.62 
L 456.953973 299.62 
L 456.953973 50.64 
L 41.07 50.64 
z
" style="fill: #ffffff"/>
   </g>
   <g id="matplotlib.axis_1">
    <g id="xtick_1">
     <g id="line2d_1">
      <path d="M 89.821949 299.62 
L 89.821949 50.64 
" clip-path="url(#pfb99af367d)" style="fill: none; stroke: #cccccc; stroke-width: 0.8; stroke-linecap: round"/>
     </g>
     <g id="line2d_2"/>
     <g id="text_1">
      <!-- APB -->
      <g style="fill: #262626" transform="translate(79.956324 310.718437) scale(0.1 -0.1)">
       <defs>
        <path id="DejaVuSans-41" d="M 2188 4044 
L 1331 1722 
L 3047 1722 
L 2188 4044 
z
M 1831 4666 
L 2547 4666 
L 4325 0 
L 3669 0 
L 3244 1197 
L 1141 1197 
L 716 0 
L 50 0 
L 1831 4666 
z
" transform="scale(0.015625)"/>
        <path id="DejaVuSans-50" d="M 1259 4147 
L 1259 2394 
L 2053 2394 
Q 2494 2394 2734 2622 
Q 2975 2850 2975 3272 
Q 2975 3691 2734 3919 
Q 2494 4147 2053 4147 
L 1259 4147 
z
M 628 4666 
L 2053 4666 
Q 2838 4666 3239 4311 
Q 3641 3956 3641 3272 
Q 3641 2581 3239 2228 
Q 2838 1875 2053 1875 
L 1259 1875 
L 1259 0 
L 628 0 
L 628 4666 
z
" transform="scale(0.015625)"/>
        <path id="DejaVuSans-42" d="M 1259 2228 
L 1259 519 
L 2272 519 
Q 2781 519 3026 730 
Q 3272 941 3272 1375 
Q 3272 1813 3026 2020 
Q 2781 2228 2272 2228 
L 1259 2228 
z
M 1259 4147 
L 1259 2741 
L 2194 2741 
Q 2656 2741 2882 2914 
Q 3109 3088 3109 3444 
Q 3109 3797 2882 3972 
Q 2656 4147 2194 4147 
L 1259 4147 
z
M 628 4666 
L 2241 4666 
Q 2963 4666 3353 4366 
Q 3744 4066 3744 3513 
Q 3744 3084 3544 2831 
Q 3344 2578 2956 2516 
Q 3422 2416 3680 2098 
Q 3938 1781 3938 1306 
Q 3938 681 3513 340 
Q 3088 0 2303 0 
L 628 0 
L 628 4666 
z
" transform="scale(0.015625)"/>
       </defs>
       <use xlink:href="#DejaVuSans-41"/>
       <use xlink:href="#DejaVuSans-50" x="68.408203"/>
       <use xlink:href="#DejaVuSans-42" x="128.710938"/>
      </g>
     </g>
    </g>
    <g id="xtick_2">
     <g id="line2d_3">
      <path d="M 169.416968 299.62 
L 169.416968 50.64 
" clip-path="url(#pfb99af367d)" style="fill: none; stroke: #cccccc; stroke-width: 0.8; stroke-linecap: round"/>
     </g>
     <g id="line2d_4"/>
     <g id="text_2">
      <!-- AHB -->
      <g style="fill: #262626" transform="translate(158.80603 310.718437) scale(0.1 -0.1)">
       <defs>
        <path id="DejaVuSans-48" d="M 628 4666 
L 1259 4666 
L 1259 2753 
L 3553 2753 
L 3553 4666 
L 4184 4666 
L 4184 0 
L 3553 0 
L 3553 2222 
L 1259 2222 
L 1259 0 
L 628 0 
L 628 4666 
z
" transform="scale(0.015625)"/>
       </defs>
       <use xlink:href="#DejaVuSans-41"/>
       <use xlink:href="#DejaVuSans-48" x="68.408203"/>
       <use xlink:href="#DejaVuSans-42" x="143.603516"/>
      </g>
     </g>
    </g>
    <g id="xtick_3">
     <g id="line2d_5">
      <path d="M 249.011987 299.62 
L 249.011987 50.64 
" clip-path="url(#pfb99af367d)" style="fill: none; stroke: #cccccc; stroke-width: 0.8; stroke-linecap: round"/>
     </g>
     <g id="line2d_6"/>
     <g id="text_3">
      <!-- I2S -->
      <g style="fill: #262626" transform="translate(241.181518 310.718437) scale(0.1 -0.1)">
       <defs>
        <path id="DejaVuSans-49" d="M 628 4666 
L 1259 4666 
L 1259 0 
L 628 0 
L 628 4666 
z
" transform="scale(0.015625)"/>
        <path id="DejaVuSans-32" d="M 1228 531 
L 3431 531 
L 3431 0 
L 469 0 
L 469 531 
Q 828 903 1448 1529 
Q 2069 2156 2228 2338 
Q 2531 2678 2651 2914 
Q 2772 3150 2772 3378 
Q 2772 3750 2511 3984 
Q 2250 4219 1831 4219 
Q 1534 4219 1204 4116 
Q 875 4013 500 3803 
L 500 4441 
Q 881 4594 1212 4672 
Q 1544 4750 1819 4750 
Q 2544 4750 2975 4387 
Q 3406 4025 3406 3419 
Q 3406 3131 3298 2873 
Q 3191 2616 2906 2266 
Q 2828 2175 2409 1742 
Q 1991 1309 1228 531 
z
" transform="scale(0.015625)"/>
        <path id="DejaVuSans-53" d="M 3425 4513 
L 3425 3897 
Q 3066 4069 2747 4153 
Q 2428 4238 2131 4238 
Q 1616 4238 1336 4038 
Q 1056 3838 1056 3469 
Q 1056 3159 1242 3001 
Q 1428 2844 1947 2747 
L 2328 2669 
Q 3034 2534 3370 2195 
Q 3706 1856 3706 1288 
Q 3706 609 3251 259 
Q 2797 -91 1919 -91 
Q 1588 -91 1214 -16 
Q 841 59 441 206 
L 441 856 
Q 825 641 1194 531 
Q 1563 422 1919 422 
Q 2459 422 2753 634 
Q 3047 847 3047 1241 
Q 3047 1584 2836 1778 
Q 2625 1972 2144 2069 
L 1759 2144 
Q 1053 2284 737 2584 
Q 422 2884 422 3419 
Q 422 4038 858 4394 
Q 1294 4750 2059 4750 
Q 2388 4750 2728 4690 
Q 3069 4631 3425 4513 
z
" transform="scale(0.015625)"/>
       </defs>
       <use xlink:href="#DejaVuSans-49"/>
       <use xlink:href="#DejaVuSans-32" x="29.492188"/>
       <use xlink:href="#DejaVuSans-53" x="93.115234"/>
      </g>
     </g>
    </g>
    <g id="xtick_4">
     <g id="line2d_7">
      <path d="M 328.607005 299.62 
L 328.607005 50.64 
" clip-path="url(#pfb99af367d)" style="fill: none; stroke: #cccccc; stroke-width: 0.8; stroke-linecap: round"/>
     </g>
     <g id="line2d_8"/>
     <g id="text_4">
      <!-- I3C -->
      <g style="fill: #262626" transform="translate(320.459349 310.718437) scale(0.1 -0.1)">
       <defs>
        <path id="DejaVuSans-33" d="M 2597 2516 
Q 3050 2419 3304 2112 
Q 3559 1806 3559 1356 
Q 3559 666 3084 287 
Q 2609 -91 1734 -91 
Q 1441 -91 1130 -33 
Q 819 25 488 141 
L 488 750 
Q 750 597 1062 519 
Q 1375 441 1716 441 
Q 2309 441 2620 675 
Q 2931 909 2931 1356 
Q 2931 1769 2642 2001 
Q 2353 2234 1838 2234 
L 1294 2234 
L 1294 2753 
L 1863 2753 
Q 2328 2753 2575 2939 
Q 2822 3125 2822 3475 
Q 2822 3834 2567 4026 
Q 2313 4219 1838 4219 
Q 1578 4219 1281 4162 
Q 984 4106 628 3988 
L 628 4550 
Q 988 4650 1302 4700 
Q 1616 4750 1894 4750 
Q 2613 4750 3031 4423 
Q 3450 4097 3450 3541 
Q 3450 3153 3228 2886 
Q 3006 2619 2597 2516 
z
" transform="scale(0.015625)"/>
        <path id="DejaVuSans-43" d="M 4122 4306 
L 4122 3641 
Q 3803 3938 3442 4084 
Q 3081 4231 2675 4231 
Q 1875 4231 1450 3742 
Q 1025 3253 1025 2328 
Q 1025 1406 1450 917 
Q 1875 428 2675 428 
Q 3081 428 3442 575 
Q 3803 722 4122 1019 
L 4122 359 
Q 3791 134 3420 21 
Q 3050 -91 2638 -91 
Q 1578 -91 968 557 
Q 359 1206 359 2328 
Q 359 3453 968 4101 
Q 1578 4750 2638 4750 
Q 3056 4750 3426 4639 
Q 3797 4528 4122 4306 
z
" transform="scale(0.015625)"/>
       </defs>
       <use xlink:href="#DejaVuSans-49"/>
       <use xlink:href="#DejaVuSans-33" x="29.492188"/>
       <use xlink:href="#DejaVuSans-43" x="93.115234"/>
      </g>
     </g>
    </g>
    <g id="xtick_5">
     <g id="line2d_9">
      <path d="M 408.202024 299.62 
L 408.202024 50.64 
" clip-path="url(#pfb99af367d)" style="fill: none; stroke: #cccccc; stroke-width: 0.8; stroke-linecap: round"/>
     </g>
     <g id="line2d_10"/>
     <g id="text_5">
      <!-- SPI -->
      <g style="fill: #262626" transform="translate(400.537962 310.718437) scale(0.1 -0.1)">
       <use xlink:href="#DejaVuSans-53"/>
       <use xlink:href="#DejaVuSans-50" x="63.476562"/>
       <use xlink:href="#DejaVuSans-49" x="123.779297"/>
      </g>
     </g>
    </g>
   </g>
   <g id="matplotlib.axis_2">
    <g id="ytick_1">
     <g id="line2d_11">
      <path d="M 41.07 299.62 
L 456.953973 299.62 
" clip-path="url(#pfb99af367d)" style="fill: none; stroke: #cccccc; stroke-width: 0.8; stroke-linecap: round"/>
     </g>
     <g id="line2d_12"/>
     <g id="text_6">
      <!-- 0 -->
      <g style="fill: #262626" transform="translate(31.2075 303.419219) scale(0.1 -0.1)">
       <defs>
        <path id="DejaVuSans-30" d="M 2034 4250 
Q 1547 4250 1301 3770 
Q 1056 3291 1056 2328 
Q 1056 1369 1301 889 
Q 1547 409 2034 409 
Q 2525 409 2770 889 
Q 3016 1369 3016 2328 
Q 3016 3291 2770 3770 
Q 2525 4250 2034 4250 
z
M 2034 4750 
Q 2819 4750 3233 4129 
Q 3647 3509 3647 2328 
Q 3647 1150 3233 529 
Q 2819 -91 2034 -91 
Q 1250 -91 836 529 
Q 422 1150 422 2328 
Q 422 3509 836 4129 
Q 1250 4750 2034 4750 
z
" transform="scale(0.015625)"/>
       </defs>
       <use xlink:href="#DejaVuSans-30"/>
      </g>
     </g>
    </g>
    <g id="ytick_2">
     <g id="line2d_13">
      <path d="M 41.07 266.686138 
L 456.953973 266.686138 
" clip-path="url(#pfb99af367d)" style="fill: none; stroke: #cccccc; stroke-width: 0.8; stroke-linecap: round"/>
     </g>
     <g id="line2d_14"/>
     <g id="text_7">
      <!-- 10 -->
      <g style="fill: #262626" transform="translate(24.845 270.485356) scale(0.1 -0.1)">
       <defs>
        <path id="DejaVuSans-31" d="M 794 531 
L 1825 531 
L 1825 4091 
L 703 3866 
L 703 4441 
L 1819 4666 
L 2450 4666 
L 2450 531 
L 3481 531 
L 3481 0 
L 794 0 
L 794 531 
z
" transform="scale(0.015625)"/>
       </defs>
       <use xlink:href="#DejaVuSans-31"/>
       <use xlink:href="#DejaVuSans-30" x="63.623047"/>
      </g>
     </g>
    </g>
    <g id="ytick_3">
     <g id="line2d_15">
      <path d="M 41.07 233.752275 
L 456.953973 233.752275 
" clip-path="url(#pfb99af367d)" style="fill: none; stroke: #cccccc; stroke-width: 0.8; stroke-linecap: round"/>
     </g>
     <g id="line2d_16"/>
     <g id="text_8">
      <!-- 20 -->
      <g style="fill: #262626" transform="translate(24.845 237.551494) scale(0.1 -0.1)">
       <use xlink:href="#DejaVuSans-32"/>
       <use xlink:href="#DejaVuSans-30" x="63.623047"/>
      </g>
     </g>
    </g>
    <g id="ytick_4">
     <g id="line2d_17">
      <path d="M 41.07 200.818413 
L 456.953973 200.818413 
" clip-path="url(#pfb99af367d)" style="fill: none; stroke: #cccccc; stroke-width: 0.8; stroke-linecap: round"/>
     </g>
     <g id="line2d_18"/>
     <g id="text_9">
      <!-- 30 -->
      <g style="fill: #262626" transform="translate(24.845 204.617631) scale(0.1 -0.1)">
       <use xlink:href="#DejaVuSans-33"/>
       <use xlink:href="#DejaVuSans-30" x="63.623047"/>
      </g>
     </g>
    </g>
    <g id="ytick_5">
     <g id="line2d_19">
      <path d="M 41.07 167.88455 
L 456.953973 167.88455 
" clip-path="url(#pfb99af367d)" style="fill: none; stroke: #cccccc; stroke-width: 0.8; stroke-linecap: round"/>
     </g>
     <g id="line2d_20"/>
     <g id="text_10">
      <!-- 40 -->
      <g style="fill: #262626" transform="translate(24.845 171.683769) scale(0.1 -0.1)">
       <defs>
        <path id="DejaVuSans-34" d="M 2419 4116 
L 825 1625 
L 2419 1625 
L 2419 4116 
z
M 2253 4666 
L 3047 4666 
L 3047 1625 
L 3713 1625 
L 3713 1100 
L 3047 1100 
L 3047 0 
L 2419 0 
L 2419 1100 
L 313 1100 
L 313 1709 
L 2253 4666 
z
" transform="scale(0.015625)"/>
       </defs>
       <use xlink:href="#DejaVuSans-34"/>
       <use xlink:href="#DejaVuSans-30" x="63.623047"/>
      </g>
     </g>
    </g>
    <g id="ytick_6">
     <g id="line2d_21">
      <path d="M 41.07 134.950688 
L 456.953973 134.950688 
" clip-path="url(#pfb99af367d)" style="fill: none; stroke: #cccccc; stroke-width: 0.8; stroke-linecap: round"/>
     </g>
     <g id="line2d_22"/>
     <g id="text_11">
      <!-- 50 -->
      <g style="fill: #262626" transform="translate(24.845 138.749907) scale(0.1 -0.1)">
       <defs>
        <path id="DejaVuSans-35" d="M 691 4666 
L 3169 4666 
L 3169 4134 
L 1269 4134 
L 1269 2991 
Q 1406 3038 1543 3061 
Q 1681 3084 1819 3084 
Q 2600 3084 3056 2656 
Q 3513 2228 3513 1497 
Q 3513 744 3044 326 
Q 2575 -91 1722 -91 
Q 1428 -91 1123 -41 
Q 819 9 494 109 
L 494 744 
Q 775 591 1075 516 
Q 1375 441 1709 441 
Q 2250 441 2565 725 
Q 2881 1009 2881 1497 
Q 2881 1984 2565 2268 
Q 2250 2553 1709 2553 
Q 1456 2553 1204 2497 
Q 953 2441 691 2322 
L 691 4666 
z
" transform="scale(0.015625)"/>
       </defs>
       <use xlink:href="#DejaVuSans-35"/>
       <use xlink:href="#DejaVuSans-30" x="63.623047"/>
      </g>
     </g>
    </g>
    <g id="ytick_7">
     <g id="line2d_23">
      <path d="M 41.07 102.016825 
L 456.953973 102.016825 
" clip-path="url(#pfb99af367d)" style="fill: none; stroke: #cccccc; stroke-width: 0.8; stroke-linecap: round"/>
     </g>
     <g id="line2d_24"/>
     <g id="text_12">
      <!-- 60 -->
      <g style="fill: #262626" transform="translate(24.845 105.816044) scale(0.1 -0.1)">
       <defs>
        <path id="DejaVuSans-36" d="M 2113 2584 
Q 1688 2584 1439 2293 
Q 1191 2003 1191 1497 
Q 1191 994 1439 701 
Q 1688 409 2113 409 
Q 2538 409 2786 701 
Q 3034 994 3034 1497 
Q 3034 2003 2786 2293 
Q 2538 2584 2113 2584 
z
M 3366 4563 
L 3366 3988 
Q 3128 4100 2886 4159 
Q 2644 4219 2406 4219 
Q 1781 4219 1451 3797 
Q 1122 3375 1075 2522 
Q 1259 2794 1537 2939 
Q 1816 3084 2150 3084 
Q 2853 3084 3261 2657 
Q 3669 2231 3669 1497 
Q 3669 778 3244 343 
Q 2819 -91 2113 -91 
Q 1303 -91 875 529 
Q 447 1150 447 2328 
Q 447 3434 972 4092 
Q 1497 4750 2381 4750 
Q 2619 4750 2861 4703 
Q 3103 4656 3366 4563 
z
" transform="scale(0.015625)"/>
       </defs>
       <use xlink:href="#DejaVuSans-36"/>
       <use xlink:href="#DejaVuSans-30" x="63.623047"/>
      </g>
     </g>
    </g>
    <g id="ytick_8">
     <g id="line2d_25">
      <path d="M 41.07 69.082963 
L 456.953973 69.082963 
" clip-path="url(#pfb99af367d)" style="fill: none; stroke: #cccccc; stroke-width: 0.8; stroke-linecap: round"/>
     </g>
     <g id="line2d_26"/>
     <g id="text_13">
      <!-- 70 -->
      <g style="fill: #262626" transform="translate(24.845 72.882182) scale(0.1 -0.1)">
       <defs>
        <path id="DejaVuSans-37" d="M 525 4666 
L 3525 4666 
L 3525 4397 
L 1831 0 
L 1172 0 
L 2766 4134 
L 525 4134 
L 525 4666 
z
" transform="scale(0.015625)"/>
       </defs>
       <use xlink:href="#DejaVuSans-37"/>
       <use xlink:href="#DejaVuSans-30" x="63.623047"/>
      </g>
     </g>
    </g>
    <g id="text_14">
     <!-- Seconds -->
     <g style="fill: #262626" transform="translate(18.765312 196.137031) rotate(-90) scale(0.1 -0.1)">
      <defs>
       <path id="DejaVuSans-65" d="M 3597 1894 
L 3597 1613 
L 953 1613 
Q 991 1019 1311 708 
Q 1631 397 2203 397 
Q 2534 397 2845 478 
Q 3156 559 3463 722 
L 3463 178 
Q 3153 47 2828 -22 
Q 2503 -91 2169 -91 
Q 1331 -91 842 396 
Q 353 884 353 1716 
Q 353 2575 817 3079 
Q 1281 3584 2069 3584 
Q 2775 3584 3186 3129 
Q 3597 2675 3597 1894 
z
M 3022 2063 
Q 3016 2534 2758 2815 
Q 2500 3097 2075 3097 
Q 1594 3097 1305 2825 
Q 1016 2553 972 2059 
L 3022 2063 
z
" transform="scale(0.015625)"/>
       <path id="DejaVuSans-63" d="M 3122 3366 
L 3122 2828 
Q 2878 2963 2633 3030 
Q 2388 3097 2138 3097 
Q 1578 3097 1268 2742 
Q 959 2388 959 1747 
Q 959 1106 1268 751 
Q 1578 397 2138 397 
Q 2388 397 2633 464 
Q 2878 531 3122 666 
L 3122 134 
Q 2881 22 2623 -34 
Q 2366 -91 2075 -91 
Q 1284 -91 818 406 
Q 353 903 353 1747 
Q 353 2603 823 3093 
Q 1294 3584 2113 3584 
Q 2378 3584 2631 3529 
Q 2884 3475 3122 3366 
z
" transform="scale(0.015625)"/>
       <path id="DejaVuSans-6f" d="M 1959 3097 
Q 1497 3097 1228 2736 
Q 959 2375 959 1747 
Q 959 1119 1226 758 
Q 1494 397 1959 397 
Q 2419 397 2687 759 
Q 2956 1122 2956 1747 
Q 2956 2369 2687 2733 
Q 2419 3097 1959 3097 
z
M 1959 3584 
Q 2709 3584 3137 3096 
Q 3566 2609 3566 1747 
Q 3566 888 3137 398 
Q 2709 -91 1959 -91 
Q 1206 -91 779 398 
Q 353 888 353 1747 
Q 353 2609 779 3096 
Q 1206 3584 1959 3584 
z
" transform="scale(0.015625)"/>
       <path id="DejaVuSans-6e" d="M 3513 2113 
L 3513 0 
L 2938 0 
L 2938 2094 
Q 2938 2591 2744 2837 
Q 2550 3084 2163 3084 
Q 1697 3084 1428 2787 
Q 1159 2491 1159 1978 
L 1159 0 
L 581 0 
L 581 3500 
L 1159 3500 
L 1159 2956 
Q 1366 3272 1645 3428 
Q 1925 3584 2291 3584 
Q 2894 3584 3203 3211 
Q 3513 2838 3513 2113 
z
" transform="scale(0.015625)"/>
       <path id="DejaVuSans-64" d="M 2906 2969 
L 2906 4863 
L 3481 4863 
L 3481 0 
L 2906 0 
L 2906 525 
Q 2725 213 2448 61 
Q 2172 -91 1784 -91 
Q 1150 -91 751 415 
Q 353 922 353 1747 
Q 353 2572 751 3078 
Q 1150 3584 1784 3584 
Q 2172 3584 2448 3432 
Q 2725 3281 2906 2969 
z
M 947 1747 
Q 947 1113 1208 752 
Q 1469 391 1925 391 
Q 2381 391 2643 752 
Q 2906 1113 2906 1747 
Q 2906 2381 2643 2742 
Q 2381 3103 1925 3103 
Q 1469 3103 1208 2742 
Q 947 2381 947 1747 
z
" transform="scale(0.015625)"/>
       <path id="DejaVuSans-73" d="M 2834 3397 
L 2834 2853 
Q 2591 2978 2328 3040 
Q 2066 3103 1784 3103 
Q 1356 3103 1142 2972 
Q 928 2841 928 2578 
Q 928 2378 1081 2264 
Q 1234 2150 1697 2047 
L 1894 2003 
Q 2506 1872 2764 1633 
Q 3022 1394 3022 966 
Q 3022 478 2636 193 
Q 2250 -91 1575 -91 
Q 1294 -91 989 -36 
Q 684 19 347 128 
L 347 722 
Q 666 556 975 473 
Q 1284 391 1588 391 
Q 1994 391 2212 530 
Q 2431 669 2431 922 
Q 2431 1156 2273 1281 
Q 2116 1406 1581 1522 
L 1381 1569 
Q 847 1681 609 1914 
Q 372 2147 372 2553 
Q 372 3047 722 3315 
Q 1072 3584 1716 3584 
Q 2034 3584 2315 3537 
Q 2597 3491 2834 3397 
z
" transform="scale(0.015625)"/>
      </defs>
      <use xlink:href="#DejaVuSans-53"/>
      <use xlink:href="#DejaVuSans-65" x="63.476562"/>
      <use xlink:href="#DejaVuSans-63" x="125"/>
      <use xlink:href="#DejaVuSans-6f" x="179.980469"/>
      <use xlink:href="#DejaVuSans-6e" x="241.162109"/>
      <use xlink:href="#DejaVuSans-64" x="304.541016"/>
      <use xlink:href="#DejaVuSans-73" x="368.017578"/>
     </g>
    </g>
   </g>
   <g id="patch_3">
    <path d="M 59.973817 299.62 
L 79.872572 299.62 
L 79.872572 296.326614 
L 59.973817 296.326614 
z
" clip-path="url(#pfb99af367d)" style="fill: #f59e0b; opacity: 0.85"/>
   </g>
   <g id="patch_4">
    <path d="M 139.568836 299.62 
L 159.46759 299.62 
L 159.46759 296.326614 
L 139.568836 296.326614 
z
" clip-path="url(#pfb99af367d)" style="fill: #f59e0b; opacity: 0.85"/>
   </g>
   <g id="patch_5">
    <path d="M 219.163854 299.62 
L 239.062609 299.62 
L 239.062609 296.326614 
L 219.163854 296.326614 
z
" clip-path="url(#pfb99af367d)" style="fill: #f59e0b; opacity: 0.85"/>
   </g>
   <g id="patch_6">
    <path d="M 298.758873 299.62 
L 318.657628 299.62 
L 318.657628 296.326614 
L 298.758873 296.326614 
z
" clip-path="url(#pfb99af367d)" style="fill: #f59e0b; opacity: 0.85"/>
   </g>
   <g id="patch_7">
    <path d="M 378.353892 299.62 
L 398.252647 299.62 
L 398.252647 296.326614 
L 378.353892 296.326614 
z
" clip-path="url(#pfb99af367d)" style="fill: #f59e0b; opacity: 0.85"/>
   </g>
   <g id="patch_8">
    <path d="M 79.872572 299.62 
L 99.771326 299.62 
L 99.771326 217.285344 
L 79.872572 217.285344 
z
" clip-path="url(#pfb99af367d)" style="fill: #2563eb; opacity: 0.85"/>
   </g>
   <g id="patch_9">
    <path d="M 159.46759 299.62 
L 179.366345 299.62 
L 179.366345 217.285344 
L 159.46759 217.285344 
z
" clip-path="url(#pfb99af367d)" style="fill: #2563eb; opacity: 0.85"/>
   </g>
   <g id="patch_10">
    <path d="M 239.062609 299.62 
L 258.961364 299.62 
L 258.961364 184.351481 
L 239.062609 184.351481 
z
" clip-path="url(#pfb99af367d)" style="fill: #2563eb; opacity: 0.85"/>
   </g>
   <g id="patch_11">
    <path d="M 318.657628 299.62 
L 338.556383 299.62 
L 338.556383 207.405185 
L 318.657628 207.405185 
z
" clip-path="url(#pfb99af367d)" style="fill: #2563eb; opacity: 0.85"/>
   </g>
   <g id="patch_12">
    <path d="M 398.252647 299.62 
L 418.151401 299.62 
L 418.151401 200.818413 
L 398.252647 200.818413 
z
" clip-path="url(#pfb99af367d)" style="fill: #2563eb; opacity: 0.85"/>
   </g>
   <g id="patch_13">
    <path d="M 99.771326 299.62 
L 119.670081 299.62 
L 119.670081 154.711005 
L 99.771326 154.711005 
z
" clip-path="url(#pfb99af367d)" style="fill: #10b981; opacity: 0.85"/>
   </g>
   <g id="patch_14">
    <path d="M 179.366345 299.62 
L 199.2651 299.62 
L 199.2651 204.111799 
L 179.366345 204.111799 
z
" clip-path="url(#pfb99af367d)" style="fill: #10b981; opacity: 0.85"/>
   </g>
   <g id="patch_15">
    <path d="M 258.961364 299.62 
L 278.860119 299.62 
L 278.860119 62.49619 
L 258.961364 62.49619 
z
" clip-path="url(#pfb99af367d)" style="fill: #10b981; opacity: 0.85"/>
   </g>
   <g id="patch_16">
    <path d="M 338.556383 299.62 
L 358.455137 299.62 
L 358.455137 194.23164 
L 338.556383 194.23164 
z
" clip-path="url(#pfb99af367d)" style="fill: #10b981; opacity: 0.85"/>
   </g>
   <g id="patch_17">
    <path d="M 418.151401 299.62 
L 438.050156 299.62 
L 438.050156 128.363915 
L 418.151401 128.363915 
z
" clip-path="url(#pfb99af367d)" style="fill: #10b981; opacity: 0.85"/>
   </g>
   <g id="patch_18">
    <path d="M 41.07 299.62 
L 41.07 50.64 
" style="fill: none; stroke: #cccccc; stroke-linejoin: miter; stroke-linecap: square"/>
   </g>
   <g id="patch_19">
    <path d="M 456.953973 299.62 
L 456.953973 50.64 
" style="fill: none; stroke: #cccccc; stroke-linejoin: miter; stroke-linecap: square"/>
   </g>
   <g id="patch_20">
    <path d="M 41.07 299.62 
L 456.953973 299.62 
" style="fill: none; stroke: #cccccc; stroke-linejoin: miter; stroke-linecap: square"/>
   </g>
   <g id="patch_21">
    <path d="M 41.07 50.64 
L 456.953973 50.64 
" style="fill: none; stroke: #cccccc; stroke-linejoin: miter; stroke-linecap: square"/>
   </g>
   <g id="text_15">
    <!-- Compile Time -->
    <g style="fill: #262626" transform="translate(203.195424 44.64) scale(0.12 -0.12)">
     <defs>
      <path id="DejaVuSans-Bold-43" d="M 4288 256 
Q 3956 84 3597 -3 
Q 3238 -91 2847 -91 
Q 1681 -91 1000 561 
Q 319 1213 319 2328 
Q 319 3447 1000 4098 
Q 1681 4750 2847 4750 
Q 3238 4750 3597 4662 
Q 3956 4575 4288 4403 
L 4288 3438 
Q 3953 3666 3628 3772 
Q 3303 3878 2944 3878 
Q 2300 3878 1931 3465 
Q 1563 3053 1563 2328 
Q 1563 1606 1931 1193 
Q 2300 781 2944 781 
Q 3303 781 3628 887 
Q 3953 994 4288 1222 
L 4288 256 
z
" transform="scale(0.015625)"/>
      <path id="DejaVuSans-Bold-6f" d="M 2203 2784 
Q 1831 2784 1636 2517 
Q 1441 2250 1441 1747 
Q 1441 1244 1636 976 
Q 1831 709 2203 709 
Q 2569 709 2762 976 
Q 2956 1244 2956 1747 
Q 2956 2250 2762 2517 
Q 2569 2784 2203 2784 
z
M 2203 3584 
Q 3106 3584 3614 3096 
Q 4122 2609 4122 1747 
Q 4122 884 3614 396 
Q 3106 -91 2203 -91 
Q 1297 -91 786 396 
Q 275 884 275 1747 
Q 275 2609 786 3096 
Q 1297 3584 2203 3584 
z
" transform="scale(0.015625)"/>
      <path id="DejaVuSans-Bold-6d" d="M 3781 2919 
Q 3994 3244 4286 3414 
Q 4578 3584 4928 3584 
Q 5531 3584 5847 3212 
Q 6163 2841 6163 2131 
L 6163 0 
L 5038 0 
L 5038 1825 
Q 5041 1866 5042 1909 
Q 5044 1953 5044 2034 
Q 5044 2406 4934 2573 
Q 4825 2741 4581 2741 
Q 4263 2741 4089 2478 
Q 3916 2216 3909 1719 
L 3909 0 
L 2784 0 
L 2784 1825 
Q 2784 2406 2684 2573 
Q 2584 2741 2328 2741 
Q 2006 2741 1831 2477 
Q 1656 2213 1656 1722 
L 1656 0 
L 531 0 
L 531 3500 
L 1656 3500 
L 1656 2988 
Q 1863 3284 2130 3434 
Q 2397 3584 2719 3584 
Q 3081 3584 3359 3409 
Q 3638 3234 3781 2919 
z
" transform="scale(0.015625)"/>
      <path id="DejaVuSans-Bold-70" d="M 1656 506 
L 1656 -1331 
L 538 -1331 
L 538 3500 
L 1656 3500 
L 1656 2988 
Q 1888 3294 2169 3439 
Q 2450 3584 2816 3584 
Q 3463 3584 3878 3070 
Q 4294 2556 4294 1747 
Q 4294 938 3878 423 
Q 3463 -91 2816 -91 
Q 2450 -91 2169 54 
Q 1888 200 1656 506 
z
M 2400 2772 
Q 2041 2772 1848 2508 
Q 1656 2244 1656 1747 
Q 1656 1250 1848 986 
Q 2041 722 2400 722 
Q 2759 722 2948 984 
Q 3138 1247 3138 1747 
Q 3138 2247 2948 2509 
Q 2759 2772 2400 2772 
z
" transform="scale(0.015625)"/>
      <path id="DejaVuSans-Bold-69" d="M 538 3500 
L 1656 3500 
L 1656 0 
L 538 0 
L 538 3500 
z
M 538 4863 
L 1656 4863 
L 1656 3950 
L 538 3950 
L 538 4863 
z
" transform="scale(0.015625)"/>
      <path id="DejaVuSans-Bold-6c" d="M 538 4863 
L 1656 4863 
L 1656 0 
L 538 0 
L 538 4863 
z
" transform="scale(0.015625)"/>
      <path id="DejaVuSans-Bold-65" d="M 4031 1759 
L 4031 1441 
L 1416 1441 
Q 1456 1047 1700 850 
Q 1944 653 2381 653 
Q 2734 653 3104 758 
Q 3475 863 3866 1075 
L 3866 213 
Q 3469 63 3072 -14 
Q 2675 -91 2278 -91 
Q 1328 -91 801 392 
Q 275 875 275 1747 
Q 275 2603 792 3093 
Q 1309 3584 2216 3584 
Q 3041 3584 3536 3087 
Q 4031 2591 4031 1759 
z
M 2881 2131 
Q 2881 2450 2695 2645 
Q 2509 2841 2209 2841 
Q 1884 2841 1681 2658 
Q 1478 2475 1428 2131 
L 2881 2131 
z
" transform="scale(0.015625)"/>
      <path id="DejaVuSans-Bold-20" transform="scale(0.015625)"/>
      <path id="DejaVuSans-Bold-54" d="M 31 4666 
L 4331 4666 
L 4331 3756 
L 2784 3756 
L 2784 0 
L 1581 0 
L 1581 3756 
L 31 3756 
L 31 4666 
z
" transform="scale(0.015625)"/>
     </defs>
     <use xlink:href="#DejaVuSans-Bold-43"/>
     <use xlink:href="#DejaVuSans-Bold-6f" x="73.388672"/>
     <use xlink:href="#DejaVuSans-Bold-6d" x="142.089844"/>
     <use xlink:href="#DejaVuSans-Bold-70" x="246.289062"/>
     <use xlink:href="#DejaVuSans-Bold-69" x="317.871094"/>
     <use xlink:href="#DejaVuSans-Bold-6c" x="352.148438"/>
     <use xlink:href="#DejaVuSans-Bold-65" x="386.425781"/>
     <use xlink:href="#DejaVuSans-Bold-20" x="454.248047"/>
     <use xlink:href="#DejaVuSans-Bold-54" x="489.0625"/>
     <use xlink:href="#DejaVuSans-Bold-69" x="557.275391"/>
     <use xlink:href="#DejaVuSans-Bold-6d" x="591.552734"/>
     <use xlink:href="#DejaVuSans-Bold-65" x="695.751953"/>
    </g>
   </g>
   <g id="legend_1">
    <g id="patch_22">
     <path d="M 372.660223 63.91875 
L 388.660223 63.91875 
L 388.660223 58.31875 
L 372.660223 58.31875 
z
" style="fill: #f59e0b; opacity: 0.85"/>
    </g>
    <g id="text_16">
     <!-- Xcelium -->
     <g style="fill: #262626" transform="translate(395.060223 63.91875) scale(0.08 -0.08)">
      <defs>
       <path id="DejaVuSans-58" d="M 403 4666 
L 1081 4666 
L 2241 2931 
L 3406 4666 
L 4084 4666 
L 2584 2425 
L 4184 0 
L 3506 0 
L 2194 1984 
L 872 0 
L 191 0 
L 1856 2491 
L 403 4666 
z
" transform="scale(0.015625)"/>
       <path id="DejaVuSans-6c" d="M 603 4863 
L 1178 4863 
L 1178 0 
L 603 0 
L 603 4863 
z
" transform="scale(0.015625)"/>
       <path id="DejaVuSans-69" d="M 603 3500 
L 1178 3500 
L 1178 0 
L 603 0 
L 603 3500 
z
M 603 4863 
L 1178 4863 
L 1178 4134 
L 603 4134 
L 603 4863 
z
" transform="scale(0.015625)"/>
       <path id="DejaVuSans-75" d="M 544 1381 
L 544 3500 
L 1119 3500 
L 1119 1403 
Q 1119 906 1312 657 
Q 1506 409 1894 409 
Q 2359 409 2629 706 
Q 2900 1003 2900 1516 
L 2900 3500 
L 3475 3500 
L 3475 0 
L 2900 0 
L 2900 538 
Q 2691 219 2414 64 
Q 2138 -91 1772 -91 
Q 1169 -91 856 284 
Q 544 659 544 1381 
z
M 1991 3584 
L 1991 3584 
z
" transform="scale(0.015625)"/>
       <path id="DejaVuSans-6d" d="M 3328 2828 
Q 3544 3216 3844 3400 
Q 4144 3584 4550 3584 
Q 5097 3584 5394 3201 
Q 5691 2819 5691 2113 
L 5691 0 
L 5113 0 
L 5113 2094 
Q 5113 2597 4934 2840 
Q 4756 3084 4391 3084 
Q 3944 3084 3684 2787 
Q 3425 2491 3425 1978 
L 3425 0 
L 2847 0 
L 2847 2094 
Q 2847 2600 2669 2842 
Q 2491 3084 2119 3084 
Q 1678 3084 1418 2786 
Q 1159 2488 1159 1978 
L 1159 0 
L 581 0 
L 581 3500 
L 1159 3500 
L 1159 2956 
Q 1356 3278 1631 3431 
Q 1906 3584 2284 3584 
Q 2666 3584 2933 3390 
Q 3200 3197 3328 2828 
z
" transform="scale(0.015625)"/>
      </defs>
      <use xlink:href="#DejaVuSans-58"/>
      <use xlink:href="#DejaVuSans-63" x="68.505859"/>
      <use xlink:href="#DejaVuSans-65" x="123.486328"/>
      <use xlink:href="#DejaVuSans-6c" x="185.009766"/>
      <use xlink:href="#DejaVuSans-69" x="212.792969"/>
      <use xlink:href="#DejaVuSans-75" x="240.576172"/>
      <use xlink:href="#DejaVuSans-6d" x="303.955078"/>
     </g>
    </g>
    <g id="patch_23">
     <path d="M 372.660223 75.66125 
L 388.660223 75.66125 
L 388.660223 70.06125 
L 372.660223 70.06125 
z
" style="fill: #2563eb; opacity: 0.85"/>
    </g>
    <g id="text_17">
     <!-- circt interpret -->
     <g style="fill: #262626" transform="translate(395.060223 75.66125) scale(0.08 -0.08)">
      <defs>
       <path id="DejaVuSans-72" d="M 2631 2963 
Q 2534 3019 2420 3045 
Q 2306 3072 2169 3072 
Q 1681 3072 1420 2755 
Q 1159 2438 1159 1844 
L 1159 0 
L 581 0 
L 581 3500 
L 1159 3500 
L 1159 2956 
Q 1341 3275 1631 3429 
Q 1922 3584 2338 3584 
Q 2397 3584 2469 3576 
Q 2541 3569 2628 3553 
L 2631 2963 
z
" transform="scale(0.015625)"/>
       <path id="DejaVuSans-74" d="M 1172 4494 
L 1172 3500 
L 2356 3500 
L 2356 3053 
L 1172 3053 
L 1172 1153 
Q 1172 725 1289 603 
Q 1406 481 1766 481 
L 2356 481 
L 2356 0 
L 1766 0 
Q 1100 0 847 248 
Q 594 497 594 1153 
L 594 3053 
L 172 3053 
L 172 3500 
L 594 3500 
L 594 4494 
L 1172 4494 
z
" transform="scale(0.015625)"/>
       <path id="DejaVuSans-20" transform="scale(0.015625)"/>
       <path id="DejaVuSans-70" d="M 1159 525 
L 1159 -1331 
L 581 -1331 
L 581 3500 
L 1159 3500 
L 1159 2969 
Q 1341 3281 1617 3432 
Q 1894 3584 2278 3584 
Q 2916 3584 3314 3078 
Q 3713 2572 3713 1747 
Q 3713 922 3314 415 
Q 2916 -91 2278 -91 
Q 1894 -91 1617 61 
Q 1341 213 1159 525 
z
M 3116 1747 
Q 3116 2381 2855 2742 
Q 2594 3103 2138 3103 
Q 1681 3103 1420 2742 
Q 1159 2381 1159 1747 
Q 1159 1113 1420 752 
Q 1681 391 2138 391 
Q 2594 391 2855 752 
Q 3116 1113 3116 1747 
z
" transform="scale(0.015625)"/>
      </defs>
      <use xlink:href="#DejaVuSans-63"/>
      <use xlink:href="#DejaVuSans-69" x="54.980469"/>
      <use xlink:href="#DejaVuSans-72" x="82.763672"/>
      <use xlink:href="#DejaVuSans-63" x="121.626953"/>
      <use xlink:href="#DejaVuSans-74" x="176.607422"/>
      <use xlink:href="#DejaVuSans-20" x="215.816406"/>
      <use xlink:href="#DejaVuSans-69" x="247.603516"/>
      <use xlink:href="#DejaVuSans-6e" x="275.386719"/>
      <use xlink:href="#DejaVuSans-74" x="338.765625"/>
      <use xlink:href="#DejaVuSans-65" x="377.974609"/>
      <use xlink:href="#DejaVuSans-72" x="439.498047"/>
      <use xlink:href="#DejaVuSans-70" x="480.611328"/>
      <use xlink:href="#DejaVuSans-72" x="544.087891"/>
      <use xlink:href="#DejaVuSans-65" x="582.951172"/>
      <use xlink:href="#DejaVuSans-74" x="644.474609"/>
     </g>
    </g>
    <g id="patch_24">
     <path d="M 372.660223 87.40375 
L 388.660223 87.40375 
L 388.660223 81.80375 
L 372.660223 81.80375 
z
" style="fill: #10b981; opacity: 0.85"/>
    </g>
    <g id="text_18">
     <!-- circt compile -->
     <g style="fill: #262626" transform="translate(395.060223 87.40375) scale(0.08 -0.08)">
      <use xlink:href="#DejaVuSans-63"/>
      <use xlink:href="#DejaVuSans-69" x="54.980469"/>
      <use xlink:href="#DejaVuSans-72" x="82.763672"/>
      <use xlink:href="#DejaVuSans-63" x="121.626953"/>
      <use xlink:href="#DejaVuSans-74" x="176.607422"/>
      <use xlink:href="#DejaVuSans-20" x="215.816406"/>
      <use xlink:href="#DejaVuSans-63" x="247.603516"/>
      <use xlink:href="#DejaVuSans-6f" x="302.583984"/>
      <use xlink:href="#DejaVuSans-6d" x="363.765625"/>
      <use xlink:href="#DejaVuSans-70" x="461.177734"/>
      <use xlink:href="#DejaVuSans-69" x="524.654297"/>
      <use xlink:href="#DejaVuSans-6c" x="552.4375"/>
      <use xlink:href="#DejaVuSans-65" x="580.220703"/>
     </g>
    </g>
   </g>
  </g>
  <g id="axes_2">
   <g id="patch_25">
    <path d="M 509.316027 299.62 
L 925.2 299.62 
L 925.2 50.64 
L 509.316027 50.64 
z
" style="fill: #ffffff"/>
   </g>
   <g id="matplotlib.axis_3">
    <g id="xtick_6">
     <g id="line2d_27">
      <path d="M 558.067976 299.62 
L 558.067976 50.64 
" clip-path="url(#p9f81c27032)" style="fill: none; stroke: #cccccc; stroke-width: 0.8; stroke-linecap: round"/>
     </g>
     <g id="line2d_28"/>
     <g id="text_19">
      <!-- APB -->
      <g style="fill: #262626" transform="translate(548.202351 310.718437) scale(0.1 -0.1)">
       <use xlink:href="#DejaVuSans-41"/>
       <use xlink:href="#DejaVuSans-50" x="68.408203"/>
       <use xlink:href="#DejaVuSans-42" x="128.710938"/>
      </g>
     </g>
    </g>
    <g id="xtick_7">
     <g id="line2d_29">
      <path d="M 637.662995 299.62 
L 637.662995 50.64 
" clip-path="url(#p9f81c27032)" style="fill: none; stroke: #cccccc; stroke-width: 0.8; stroke-linecap: round"/>
     </g>
     <g id="line2d_30"/>
     <g id="text_20">
      <!-- AHB -->
      <g style="fill: #262626" transform="translate(627.052057 310.718437) scale(0.1 -0.1)">
       <use xlink:href="#DejaVuSans-41"/>
       <use xlink:href="#DejaVuSans-48" x="68.408203"/>
       <use xlink:href="#DejaVuSans-42" x="143.603516"/>
      </g>
     </g>
    </g>
    <g id="xtick_8">
     <g id="line2d_31">
      <path d="M 717.258013 299.62 
L 717.258013 50.64 
" clip-path="url(#p9f81c27032)" style="fill: none; stroke: #cccccc; stroke-width: 0.8; stroke-linecap: round"/>
     </g>
     <g id="line2d_32"/>
     <g id="text_21">
      <!-- I2S -->
      <g style="fill: #262626" transform="translate(709.427545 310.718437) scale(0.1 -0.1)">
       <use xlink:href="#DejaVuSans-49"/>
       <use xlink:href="#DejaVuSans-32" x="29.492188"/>
       <use xlink:href="#DejaVuSans-53" x="93.115234"/>
      </g>
     </g>
    </g>
    <g id="xtick_9">
     <g id="line2d_33">
      <path d="M 796.853032 299.62 
L 796.853032 50.64 
" clip-path="url(#p9f81c27032)" style="fill: none; stroke: #cccccc; stroke-width: 0.8; stroke-linecap: round"/>
     </g>
     <g id="line2d_34"/>
     <g id="text_22">
      <!-- I3C -->
      <g style="fill: #262626" transform="translate(788.705376 310.718437) scale(0.1 -0.1)">
       <use xlink:href="#DejaVuSans-49"/>
       <use xlink:href="#DejaVuSans-33" x="29.492188"/>
       <use xlink:href="#DejaVuSans-43" x="93.115234"/>
      </g>
     </g>
    </g>
    <g id="xtick_10">
     <g id="line2d_35">
      <path d="M 876.448051 299.62 
L 876.448051 50.64 
" clip-path="url(#p9f81c27032)" style="fill: none; stroke: #cccccc; stroke-width: 0.8; stroke-linecap: round"/>
     </g>
     <g id="line2d_36"/>
     <g id="text_23">
      <!-- SPI -->
      <g style="fill: #262626" transform="translate(868.783989 310.718437) scale(0.1 -0.1)">
       <use xlink:href="#DejaVuSans-53"/>
       <use xlink:href="#DejaVuSans-50" x="63.476562"/>
       <use xlink:href="#DejaVuSans-49" x="123.779297"/>
      </g>
     </g>
    </g>
   </g>
   <g id="matplotlib.axis_4">
    <g id="ytick_9">
     <g id="line2d_37">
      <path d="M 509.316027 288.302727 
L 925.2 288.302727 
" clip-path="url(#p9f81c27032)" style="fill: none; stroke: #cccccc; stroke-width: 0.8; stroke-linecap: round"/>
     </g>
     <g id="line2d_38"/>
     <g id="text_24">
      <!-- $\mathdefault{10^{-3}}$ -->
      <g style="fill: #262626" transform="translate(482.316027 292.101946) scale(0.1 -0.1)">
       <defs>
        <path id="DejaVuSans-2212" d="M 678 2272 
L 4684 2272 
L 4684 1741 
L 678 1741 
L 678 2272 
z
" transform="scale(0.015625)"/>
       </defs>
       <use xlink:href="#DejaVuSans-31" transform="translate(0 0.765625)"/>
       <use xlink:href="#DejaVuSans-30" transform="translate(63.623047 0.765625)"/>
       <use xlink:href="#DejaVuSans-2212" transform="translate(128.203125 39.046875) scale(0.7)"/>
       <use xlink:href="#DejaVuSans-33" transform="translate(186.855469 39.046875) scale(0.7)"/>
      </g>
     </g>
    </g>
    <g id="ytick_10">
     <g id="line2d_39">
      <path d="M 509.316027 246.246849 
L 925.2 246.246849 
" clip-path="url(#p9f81c27032)" style="fill: none; stroke: #cccccc; stroke-width: 0.8; stroke-linecap: round"/>
     </g>
     <g id="line2d_40"/>
     <g id="text_25">
      <!-- $\mathdefault{10^{-2}}$ -->
      <g style="fill: #262626" transform="translate(482.316027 250.046068) scale(0.1 -0.1)">
       <use xlink:href="#DejaVuSans-31" transform="translate(0 0.765625)"/>
       <use xlink:href="#DejaVuSans-30" transform="translate(63.623047 0.765625)"/>
       <use xlink:href="#DejaVuSans-2212" transform="translate(128.203125 39.046875) scale(0.7)"/>
       <use xlink:href="#DejaVuSans-32" transform="translate(186.855469 39.046875) scale(0.7)"/>
      </g>
     </g>
    </g>
    <g id="ytick_11">
     <g id="line2d_41">
      <path d="M 509.316027 204.19097 
L 925.2 204.19097 
" clip-path="url(#p9f81c27032)" style="fill: none; stroke: #cccccc; stroke-width: 0.8; stroke-linecap: round"/>
     </g>
     <g id="line2d_42"/>
     <g id="text_26">
      <!-- $\mathdefault{10^{-1}}$ -->
      <g style="fill: #262626" transform="translate(482.316027 207.990189) scale(0.1 -0.1)">
       <use xlink:href="#DejaVuSans-31" transform="translate(0 0.684375)"/>
       <use xlink:href="#DejaVuSans-30" transform="translate(63.623047 0.684375)"/>
       <use xlink:href="#DejaVuSans-2212" transform="translate(128.203125 38.965625) scale(0.7)"/>
       <use xlink:href="#DejaVuSans-31" transform="translate(186.855469 38.965625) scale(0.7)"/>
      </g>
     </g>
    </g>
    <g id="ytick_12">
     <g id="line2d_43">
      <path d="M 509.316027 162.135092 
L 925.2 162.135092 
" clip-path="url(#p9f81c27032)" style="fill: none; stroke: #cccccc; stroke-width: 0.8; stroke-linecap: round"/>
     </g>
     <g id="line2d_44"/>
     <g id="text_27">
      <!-- $\mathdefault{10^{0}}$ -->
      <g style="fill: #262626" transform="translate(488.216027 165.934311) scale(0.1 -0.1)">
       <use xlink:href="#DejaVuSans-31" transform="translate(0 0.765625)"/>
       <use xlink:href="#DejaVuSans-30" transform="translate(63.623047 0.765625)"/>
       <use xlink:href="#DejaVuSans-30" transform="translate(128.203125 39.046875) scale(0.7)"/>
      </g>
     </g>
    </g>
    <g id="ytick_13">
     <g id="line2d_45">
      <path d="M 509.316027 120.079213 
L 925.2 120.079213 
" clip-path="url(#p9f81c27032)" style="fill: none; stroke: #cccccc; stroke-width: 0.8; stroke-linecap: round"/>
     </g>
     <g id="line2d_46"/>
     <g id="text_28">
      <!-- $\mathdefault{10^{1}}$ -->
      <g style="fill: #262626" transform="translate(488.216027 123.878432) scale(0.1 -0.1)">
       <use xlink:href="#DejaVuSans-31" transform="translate(0 0.684375)"/>
       <use xlink:href="#DejaVuSans-30" transform="translate(63.623047 0.684375)"/>
       <use xlink:href="#DejaVuSans-31" transform="translate(128.203125 38.965625) scale(0.7)"/>
      </g>
     </g>
    </g>
    <g id="ytick_14">
     <g id="line2d_47">
      <path d="M 509.316027 78.023335 
L 925.2 78.023335 
" clip-path="url(#p9f81c27032)" style="fill: none; stroke: #cccccc; stroke-width: 0.8; stroke-linecap: round"/>
     </g>
     <g id="line2d_48"/>
     <g id="text_29">
      <!-- $\mathdefault{10^{2}}$ -->
      <g style="fill: #262626" transform="translate(488.216027 81.822554) scale(0.1 -0.1)">
       <use xlink:href="#DejaVuSans-31" transform="translate(0 0.765625)"/>
       <use xlink:href="#DejaVuSans-30" transform="translate(63.623047 0.765625)"/>
       <use xlink:href="#DejaVuSans-32" transform="translate(128.203125 39.046875) scale(0.7)"/>
      </g>
     </g>
    </g>
    <g id="ytick_15">
     <g id="line2d_49"/>
    </g>
    <g id="ytick_16">
     <g id="line2d_50"/>
    </g>
    <g id="ytick_17">
     <g id="line2d_51"/>
    </g>
    <g id="ytick_18">
     <g id="line2d_52"/>
    </g>
    <g id="ytick_19">
     <g id="line2d_53"/>
    </g>
    <g id="ytick_20">
     <g id="line2d_54"/>
    </g>
    <g id="ytick_21">
     <g id="line2d_55"/>
    </g>
    <g id="ytick_22">
     <g id="line2d_56"/>
    </g>
    <g id="ytick_23">
     <g id="line2d_57"/>
    </g>
    <g id="ytick_24">
     <g id="line2d_58"/>
    </g>
    <g id="ytick_25">
     <g id="line2d_59"/>
    </g>
    <g id="ytick_26">
     <g id="line2d_60"/>
    </g>
    <g id="ytick_27">
     <g id="line2d_61"/>
    </g>
    <g id="ytick_28">
     <g id="line2d_62"/>
    </g>
    <g id="ytick_29">
     <g id="line2d_63"/>
    </g>
    <g id="ytick_30">
     <g id="line2d_64"/>
    </g>
    <g id="ytick_31">
     <g id="line2d_65"/>
    </g>
    <g id="ytick_32">
     <g id="line2d_66"/>
    </g>
    <g id="ytick_33">
     <g id="line2d_67"/>
    </g>
    <g id="ytick_34">
     <g id="line2d_68"/>
    </g>
    <g id="ytick_35">
     <g id="line2d_69"/>
    </g>
    <g id="ytick_36">
     <g id="line2d_70"/>
    </g>
    <g id="ytick_37">
     <g id="line2d_71"/>
    </g>
    <g id="ytick_38">
     <g id="line2d_72"/>
    </g>
    <g id="ytick_39">
     <g id="line2d_73"/>
    </g>
    <g id="ytick_40">
     <g id="line2d_74"/>
    </g>
    <g id="ytick_41">
     <g id="line2d_75"/>
    </g>
    <g id="ytick_42">
     <g id="line2d_76"/>
    </g>
    <g id="ytick_43">
     <g id="line2d_77"/>
    </g>
    <g id="ytick_44">
     <g id="line2d_78"/>
    </g>
    <g id="ytick_45">
     <g id="line2d_79"/>
    </g>
    <g id="ytick_46">
     <g id="line2d_80"/>
    </g>
    <g id="ytick_47">
     <g id="line2d_81"/>
    </g>
    <g id="ytick_48">
     <g id="line2d_82"/>
    </g>
    <g id="ytick_49">
     <g id="line2d_83"/>
    </g>
    <g id="ytick_50">
     <g id="line2d_84"/>
    </g>
    <g id="ytick_51">
     <g id="line2d_85"/>
    </g>
    <g id="ytick_52">
     <g id="line2d_86"/>
    </g>
    <g id="ytick_53">
     <g id="line2d_87"/>
    </g>
    <g id="ytick_54">
     <g id="line2d_88"/>
    </g>
    <g id="ytick_55">
     <g id="line2d_89"/>
    </g>
    <g id="ytick_56">
     <g id="line2d_90"/>
    </g>
    <g id="ytick_57">
     <g id="line2d_91"/>
    </g>
    <g id="ytick_58">
     <g id="line2d_92"/>
    </g>
    <g id="ytick_59">
     <g id="line2d_93"/>
    </g>
    <g id="ytick_60">
     <g id="line2d_94"/>
    </g>
    <g id="ytick_61">
     <g id="line2d_95"/>
    </g>
    <g id="text_30">
     <!-- Seconds (log scale) -->
     <g style="fill: #262626" transform="translate(476.236339 223.722969) rotate(-90) scale(0.1 -0.1)">
      <defs>
       <path id="DejaVuSans-28" d="M 1984 4856 
Q 1566 4138 1362 3434 
Q 1159 2731 1159 2009 
Q 1159 1288 1364 580 
Q 1569 -128 1984 -844 
L 1484 -844 
Q 1016 -109 783 600 
Q 550 1309 550 2009 
Q 550 2706 781 3412 
Q 1013 4119 1484 4856 
L 1984 4856 
z
" transform="scale(0.015625)"/>
       <path id="DejaVuSans-67" d="M 2906 1791 
Q 2906 2416 2648 2759 
Q 2391 3103 1925 3103 
Q 1463 3103 1205 2759 
Q 947 2416 947 1791 
Q 947 1169 1205 825 
Q 1463 481 1925 481 
Q 2391 481 2648 825 
Q 2906 1169 2906 1791 
z
M 3481 434 
Q 3481 -459 3084 -895 
Q 2688 -1331 1869 -1331 
Q 1566 -1331 1297 -1286 
Q 1028 -1241 775 -1147 
L 775 -588 
Q 1028 -725 1275 -790 
Q 1522 -856 1778 -856 
Q 2344 -856 2625 -561 
Q 2906 -266 2906 331 
L 2906 616 
Q 2728 306 2450 153 
Q 2172 0 1784 0 
Q 1141 0 747 490 
Q 353 981 353 1791 
Q 353 2603 747 3093 
Q 1141 3584 1784 3584 
Q 2172 3584 2450 3431 
Q 2728 3278 2906 2969 
L 2906 3500 
L 3481 3500 
L 3481 434 
z
" transform="scale(0.015625)"/>
       <path id="DejaVuSans-61" d="M 2194 1759 
Q 1497 1759 1228 1600 
Q 959 1441 959 1056 
Q 959 750 1161 570 
Q 1363 391 1709 391 
Q 2188 391 2477 730 
Q 2766 1069 2766 1631 
L 2766 1759 
L 2194 1759 
z
M 3341 1997 
L 3341 0 
L 2766 0 
L 2766 531 
Q 2569 213 2275 61 
Q 1981 -91 1556 -91 
Q 1019 -91 701 211 
Q 384 513 384 1019 
Q 384 1609 779 1909 
Q 1175 2209 1959 2209 
L 2766 2209 
L 2766 2266 
Q 2766 2663 2505 2880 
Q 2244 3097 1772 3097 
Q 1472 3097 1187 3025 
Q 903 2953 641 2809 
L 641 3341 
Q 956 3463 1253 3523 
Q 1550 3584 1831 3584 
Q 2591 3584 2966 3190 
Q 3341 2797 3341 1997 
z
" transform="scale(0.015625)"/>
       <path id="DejaVuSans-29" d="M 513 4856 
L 1013 4856 
Q 1481 4119 1714 3412 
Q 1947 2706 1947 2009 
Q 1947 1309 1714 600 
Q 1481 -109 1013 -844 
L 513 -844 
Q 928 -128 1133 580 
Q 1338 1288 1338 2009 
Q 1338 2731 1133 3434 
Q 928 4138 513 4856 
z
" transform="scale(0.015625)"/>
      </defs>
      <use xlink:href="#DejaVuSans-53"/>
      <use xlink:href="#DejaVuSans-65" x="63.476562"/>
      <use xlink:href="#DejaVuSans-63" x="125"/>
      <use xlink:href="#DejaVuSans-6f" x="179.980469"/>
      <use xlink:href="#DejaVuSans-6e" x="241.162109"/>
      <use xlink:href="#DejaVuSans-64" x="304.541016"/>
      <use xlink:href="#DejaVuSans-73" x="368.017578"/>
      <use xlink:href="#DejaVuSans-20" x="420.117188"/>
      <use xlink:href="#DejaVuSans-28" x="451.904297"/>
      <use xlink:href="#DejaVuSans-6c" x="490.917969"/>
      <use xlink:href="#DejaVuSans-6f" x="518.701172"/>
      <use xlink:href="#DejaVuSans-67" x="579.882812"/>
      <use xlink:href="#DejaVuSans-20" x="643.359375"/>
      <use xlink:href="#DejaVuSans-73" x="675.146484"/>
      <use xlink:href="#DejaVuSans-63" x="727.246094"/>
      <use xlink:href="#DejaVuSans-61" x="782.226562"/>
      <use xlink:href="#DejaVuSans-6c" x="843.505859"/>
      <use xlink:href="#DejaVuSans-65" x="871.289062"/>
      <use xlink:href="#DejaVuSans-29" x="932.8125"/>
     </g>
    </g>
   </g>
   <g id="patch_26">
    <path d="M 528.219844 42218.01354 
L 548.118599 42218.01354 
L 548.118599 288.302727 
L 528.219844 288.302727 
z
" clip-path="url(#p9f81c27032)" style="fill: #f59e0b; opacity: 0.85"/>
   </g>
   <g id="patch_27">
    <path d="M 607.814863 42218.01354 
L 627.713617 42218.01354 
L 627.713617 246.246849 
L 607.814863 246.246849 
z
" clip-path="url(#p9f81c27032)" style="fill: #f59e0b; opacity: 0.85"/>
   </g>
   <g id="patch_28">
    <path d="M 687.409881 42218.01354 
L 707.308636 42218.01354 
L 707.308636 220.926687 
L 687.409881 220.926687 
z
" clip-path="url(#p9f81c27032)" style="fill: #f59e0b; opacity: 0.85"/>
   </g>
   <g id="patch_29">
    <path d="M 767.0049 42218.01354 
L 786.903655 42218.01354 
L 786.903655 262.982565 
L 767.0049 262.982565 
z
" clip-path="url(#p9f81c27032)" style="fill: #f59e0b; opacity: 0.85"/>
   </g>
   <g id="patch_30">
    <path d="M 846.599919 42218.01354 
L 866.498674 42218.01354 
L 866.498674 275.642646 
L 846.599919 275.642646 
z
" clip-path="url(#p9f81c27032)" style="fill: #f59e0b; opacity: 0.85"/>
   </g>
   <g id="patch_31">
    <path d="M 548.118599 42218.01354 
L 568.017353 42218.01354 
L 568.017353 92.607787 
L 548.118599 92.607787 
z
" clip-path="url(#p9f81c27032)" style="fill: #2563eb; opacity: 0.85"/>
   </g>
   <g id="patch_32">
    <path d="M 627.713617 42218.01354 
L 647.612372 42218.01354 
L 647.612372 97.197954 
L 627.713617 97.197954 
z
" clip-path="url(#p9f81c27032)" style="fill: #2563eb; opacity: 0.85"/>
   </g>
   <g id="patch_33">
    <path d="M 707.308636 42218.01354 
L 727.207391 42218.01354 
L 727.207391 87.353379 
L 707.308636 87.353379 
z
" clip-path="url(#p9f81c27032)" style="fill: #2563eb; opacity: 0.85"/>
   </g>
   <g id="patch_34">
    <path d="M 786.903655 42218.01354 
L 806.80241 42218.01354 
L 806.80241 61.957273 
L 786.903655 61.957273 
z
" clip-path="url(#p9f81c27032)" style="fill: #2563eb; opacity: 0.85"/>
   </g>
   <g id="patch_35">
    <path d="M 866.498674 42218.01354 
L 886.397428 42218.01354 
L 886.397428 94.759052 
L 866.498674 94.759052 
z
" clip-path="url(#p9f81c27032)" style="fill: #2563eb; opacity: 0.85"/>
   </g>
   <g id="patch_36">
    <path d="M 727.207391 42218.01354 
L 747.106146 42218.01354 
L 747.106146 101.27359 
L 727.207391 101.27359 
z
" clip-path="url(#p9f81c27032)" style="fill: #10b981; opacity: 0.85"/>
   </g>
   <g id="patch_37">
    <path d="M 886.397428 42218.01354 
L 906.296183 42218.01354 
L 906.296183 89.277751 
L 886.397428 89.277751 
z
" clip-path="url(#p9f81c27032)" style="fill: #10b981; opacity: 0.85"/>
   </g>
   <g id="patch_38">
    <path d="M 509.316027 299.62 
L 509.316027 50.64 
" style="fill: none; stroke: #cccccc; stroke-linejoin: miter; stroke-linecap: square"/>
   </g>
   <g id="patch_39">
    <path d="M 925.2 299.62 
L 925.2 50.64 
" style="fill: none; stroke: #cccccc; stroke-linejoin: miter; stroke-linecap: square"/>
   </g>
   <g id="patch_40">
    <path d="M 509.316027 299.62 
L 925.2 299.62 
" style="fill: none; stroke: #cccccc; stroke-linejoin: miter; stroke-linecap: square"/>
   </g>
   <g id="patch_41">
    <path d="M 509.316027 50.64 
L 925.2 50.64 
" style="fill: none; stroke: #cccccc; stroke-linejoin: miter; stroke-linecap: square"/>
   </g>
   <g id="text_31">
    <!-- crash -->
    <g style="fill: #6b7280" transform="translate(568.417199 107.199431) scale(0.07 -0.07)">
     <defs>
      <path id="DejaVuSans-Oblique-63" d="M 3431 3366 
L 3316 2797 
Q 3109 2947 2876 3022 
Q 2644 3097 2394 3097 
Q 2119 3097 1870 3000 
Q 1622 2903 1453 2725 
Q 1184 2453 1037 2087 
Q 891 1722 891 1331 
Q 891 859 1127 628 
Q 1363 397 1844 397 
Q 2081 397 2348 469 
Q 2616 541 2906 684 
L 2797 116 
Q 2547 13 2283 -39 
Q 2019 -91 1741 -91 
Q 1044 -91 669 257 
Q 294 606 294 1253 
Q 294 1797 489 2255 
Q 684 2713 1069 3078 
Q 1331 3328 1684 3456 
Q 2038 3584 2456 3584 
Q 2700 3584 2940 3529 
Q 3181 3475 3431 3366 
z
" transform="scale(0.015625)"/>
      <path id="DejaVuSans-Oblique-72" d="M 2853 2969 
Q 2766 3016 2653 3041 
Q 2541 3066 2413 3066 
Q 1953 3066 1609 2717 
Q 1266 2369 1153 1784 
L 800 0 
L 225 0 
L 909 3500 
L 1484 3500 
L 1375 2956 
Q 1603 3259 1920 3421 
Q 2238 3584 2597 3584 
Q 2691 3584 2781 3573 
Q 2872 3563 2963 3538 
L 2853 2969 
z
" transform="scale(0.015625)"/>
      <path id="DejaVuSans-Oblique-61" d="M 3438 1997 
L 3047 0 
L 2472 0 
L 2578 531 
Q 2325 219 2001 64 
Q 1678 -91 1281 -91 
Q 834 -91 548 182 
Q 263 456 263 884 
Q 263 1497 752 1853 
Q 1241 2209 2100 2209 
L 2900 2209 
L 2931 2363 
Q 2938 2388 2941 2417 
Q 2944 2447 2944 2509 
Q 2944 2788 2717 2942 
Q 2491 3097 2081 3097 
Q 1800 3097 1504 3025 
Q 1209 2953 897 2809 
L 997 3341 
Q 1322 3463 1633 3523 
Q 1944 3584 2234 3584 
Q 2853 3584 3176 3315 
Q 3500 3047 3500 2534 
Q 3500 2431 3484 2292 
Q 3469 2153 3438 1997 
z
M 2816 1759 
L 2241 1759 
Q 1534 1759 1195 1570 
Q 856 1381 856 984 
Q 856 709 1029 553 
Q 1203 397 1509 397 
Q 1978 397 2328 733 
Q 2678 1069 2791 1631 
L 2816 1759 
z
" transform="scale(0.015625)"/>
      <path id="DejaVuSans-Oblique-73" d="M 3200 3397 
L 3091 2853 
Q 2863 2978 2609 3040 
Q 2356 3103 2088 3103 
Q 1634 3103 1373 2948 
Q 1113 2794 1113 2528 
Q 1113 2219 1719 2053 
Q 1766 2041 1788 2034 
L 1972 1978 
Q 2547 1819 2739 1644 
Q 2931 1469 2931 1166 
Q 2931 609 2489 259 
Q 2047 -91 1331 -91 
Q 1053 -91 747 -37 
Q 441 16 72 128 
L 184 722 
Q 500 559 806 475 
Q 1113 391 1394 391 
Q 1816 391 2080 572 
Q 2344 753 2344 1031 
Q 2344 1331 1650 1516 
L 1591 1531 
L 1394 1581 
Q 956 1697 753 1886 
Q 550 2075 550 2369 
Q 550 2928 970 3256 
Q 1391 3584 2113 3584 
Q 2397 3584 2667 3537 
Q 2938 3491 3200 3397 
z
" transform="scale(0.015625)"/>
      <path id="DejaVuSans-Oblique-68" d="M 3566 2113 
L 3156 0 
L 2578 0 
L 2988 2091 
Q 3016 2238 3031 2350 
Q 3047 2463 3047 2528 
Q 3047 2791 2881 2937 
Q 2716 3084 2419 3084 
Q 1956 3084 1617 2771 
Q 1278 2459 1178 1941 
L 800 0 
L 225 0 
L 1172 4863 
L 1747 4863 
L 1375 2950 
Q 1594 3244 1934 3414 
Q 2275 3584 2650 3584 
Q 3113 3584 3367 3334 
Q 3622 3084 3622 2631 
Q 3622 2519 3608 2391 
Q 3594 2263 3566 2113 
z
" transform="scale(0.015625)"/>
     </defs>
     <use xlink:href="#DejaVuSans-Oblique-63"/>
     <use xlink:href="#DejaVuSans-Oblique-72" x="54.980469"/>
     <use xlink:href="#DejaVuSans-Oblique-61" x="96.09375"/>
     <use xlink:href="#DejaVuSans-Oblique-73" x="157.373047"/>
     <use xlink:href="#DejaVuSans-Oblique-68" x="209.472656"/>
    </g>
   </g>
   <g id="text_32">
    <!-- crash -->
    <g style="fill: #6b7280" transform="translate(648.012218 111.789597) scale(0.07 -0.07)">
     <use xlink:href="#DejaVuSans-Oblique-63"/>
     <use xlink:href="#DejaVuSans-Oblique-72" x="54.980469"/>
     <use xlink:href="#DejaVuSans-Oblique-61" x="96.09375"/>
     <use xlink:href="#DejaVuSans-Oblique-73" x="157.373047"/>
     <use xlink:href="#DejaVuSans-Oblique-68" x="209.472656"/>
    </g>
   </g>
   <g id="text_33">
    <!-- crash -->
    <g style="fill: #6b7280" transform="translate(807.202256 76.548916) scale(0.07 -0.07)">
     <use xlink:href="#DejaVuSans-Oblique-63"/>
     <use xlink:href="#DejaVuSans-Oblique-72" x="54.980469"/>
     <use xlink:href="#DejaVuSans-Oblique-61" x="96.09375"/>
     <use xlink:href="#DejaVuSans-Oblique-73" x="157.373047"/>
     <use xlink:href="#DejaVuSans-Oblique-68" x="209.472656"/>
    </g>
   </g>
   <g id="text_34">
    <!-- 45000x -->
    <g style="fill: #dc2626" transform="translate(543.634304 83.746334) scale(0.07 -0.07)">
     <defs>
      <path id="DejaVuSans-Bold-34" d="M 2356 3675 
L 1038 1722 
L 2356 1722 
L 2356 3675 
z
M 2156 4666 
L 3494 4666 
L 3494 1722 
L 4159 1722 
L 4159 850 
L 3494 850 
L 3494 0 
L 2356 0 
L 2356 850 
L 288 850 
L 288 1881 
L 2156 4666 
z
" transform="scale(0.015625)"/>
      <path id="DejaVuSans-Bold-35" d="M 678 4666 
L 3669 4666 
L 3669 3781 
L 1638 3781 
L 1638 3059 
Q 1775 3097 1914 3117 
Q 2053 3138 2203 3138 
Q 3056 3138 3531 2711 
Q 4006 2284 4006 1522 
Q 4006 766 3489 337 
Q 2972 -91 2053 -91 
Q 1656 -91 1267 -14 
Q 878 63 494 219 
L 494 1166 
Q 875 947 1217 837 
Q 1559 728 1863 728 
Q 2300 728 2551 942 
Q 2803 1156 2803 1522 
Q 2803 1891 2551 2103 
Q 2300 2316 1863 2316 
Q 1603 2316 1309 2248 
Q 1016 2181 678 2041 
L 678 4666 
z
" transform="scale(0.015625)"/>
      <path id="DejaVuSans-Bold-30" d="M 2944 2338 
Q 2944 3213 2780 3570 
Q 2616 3928 2228 3928 
Q 1841 3928 1675 3570 
Q 1509 3213 1509 2338 
Q 1509 1453 1675 1090 
Q 1841 728 2228 728 
Q 2613 728 2778 1090 
Q 2944 1453 2944 2338 
z
M 4147 2328 
Q 4147 1169 3647 539 
Q 3147 -91 2228 -91 
Q 1306 -91 806 539 
Q 306 1169 306 2328 
Q 306 3491 806 4120 
Q 1306 4750 2228 4750 
Q 3147 4750 3647 4120 
Q 4147 3491 4147 2328 
z
" transform="scale(0.015625)"/>
      <path id="DejaVuSans-Bold-78" d="M 1422 1791 
L 159 3500 
L 1344 3500 
L 2059 2463 
L 2784 3500 
L 3969 3500 
L 2706 1797 
L 4031 0 
L 2847 0 
L 2059 1106 
L 1281 0 
L 97 0 
L 1422 1791 
z
" transform="scale(0.015625)"/>
     </defs>
     <use xlink:href="#DejaVuSans-Bold-34"/>
     <use xlink:href="#DejaVuSans-Bold-35" x="69.580078"/>
     <use xlink:href="#DejaVuSans-Bold-30" x="139.160156"/>
     <use xlink:href="#DejaVuSans-Bold-30" x="208.740234"/>
     <use xlink:href="#DejaVuSans-Bold-30" x="278.320312"/>
     <use xlink:href="#DejaVuSans-Bold-78" x="347.900391"/>
    </g>
   </g>
   <g id="text_35">
    <!-- 3500x -->
    <g style="fill: #dc2626" transform="translate(625.664557 88.3365) scale(0.07 -0.07)">
     <defs>
      <path id="DejaVuSans-Bold-33" d="M 2981 2516 
Q 3453 2394 3698 2092 
Q 3944 1791 3944 1325 
Q 3944 631 3412 270 
Q 2881 -91 1863 -91 
Q 1503 -91 1142 -33 
Q 781 25 428 141 
L 428 1069 
Q 766 900 1098 814 
Q 1431 728 1753 728 
Q 2231 728 2486 893 
Q 2741 1059 2741 1369 
Q 2741 1688 2480 1852 
Q 2219 2016 1709 2016 
L 1228 2016 
L 1228 2791 
L 1734 2791 
Q 2188 2791 2409 2933 
Q 2631 3075 2631 3366 
Q 2631 3634 2415 3781 
Q 2200 3928 1806 3928 
Q 1516 3928 1219 3862 
Q 922 3797 628 3669 
L 628 4550 
Q 984 4650 1334 4700 
Q 1684 4750 2022 4750 
Q 2931 4750 3382 4451 
Q 3834 4153 3834 3553 
Q 3834 3144 3618 2883 
Q 3403 2622 2981 2516 
z
" transform="scale(0.015625)"/>
     </defs>
     <use xlink:href="#DejaVuSans-Bold-33"/>
     <use xlink:href="#DejaVuSans-Bold-35" x="69.580078"/>
     <use xlink:href="#DejaVuSans-Bold-30" x="139.160156"/>
     <use xlink:href="#DejaVuSans-Bold-30" x="208.740234"/>
     <use xlink:href="#DejaVuSans-Bold-78" x="278.320312"/>
    </g>
   </g>
   <g id="text_36">
    <!-- 1500x -->
    <g style="fill: #dc2626" transform="translate(705.259576 78.491925) scale(0.07 -0.07)">
     <defs>
      <path id="DejaVuSans-Bold-31" d="M 750 831 
L 1813 831 
L 1813 3847 
L 722 3622 
L 722 4441 
L 1806 4666 
L 2950 4666 
L 2950 831 
L 4013 831 
L 4013 0 
L 750 0 
L 750 831 
z
" transform="scale(0.015625)"/>
     </defs>
     <use xlink:href="#DejaVuSans-Bold-31"/>
     <use xlink:href="#DejaVuSans-Bold-35" x="69.580078"/>
     <use xlink:href="#DejaVuSans-Bold-30" x="139.160156"/>
     <use xlink:href="#DejaVuSans-Bold-30" x="208.740234"/>
     <use xlink:href="#DejaVuSans-Bold-78" x="278.320312"/>
    </g>
   </g>
   <g id="text_37">
    <!-- 60250x -->
    <g style="fill: #dc2626" transform="translate(782.41936 53.095819) scale(0.07 -0.07)">
     <defs>
      <path id="DejaVuSans-Bold-36" d="M 2316 2303 
Q 2000 2303 1842 2098 
Q 1684 1894 1684 1484 
Q 1684 1075 1842 870 
Q 2000 666 2316 666 
Q 2634 666 2792 870 
Q 2950 1075 2950 1484 
Q 2950 1894 2792 2098 
Q 2634 2303 2316 2303 
z
M 3803 4544 
L 3803 3681 
Q 3506 3822 3243 3889 
Q 2981 3956 2731 3956 
Q 2194 3956 1894 3657 
Q 1594 3359 1544 2772 
Q 1750 2925 1990 3001 
Q 2231 3078 2516 3078 
Q 3231 3078 3670 2659 
Q 4109 2241 4109 1563 
Q 4109 813 3618 361 
Q 3128 -91 2303 -91 
Q 1394 -91 895 523 
Q 397 1138 397 2266 
Q 397 3422 980 4083 
Q 1563 4744 2578 4744 
Q 2900 4744 3203 4694 
Q 3506 4644 3803 4544 
z
" transform="scale(0.015625)"/>
      <path id="DejaVuSans-Bold-32" d="M 1844 884 
L 3897 884 
L 3897 0 
L 506 0 
L 506 884 
L 2209 2388 
Q 2438 2594 2547 2791 
Q 2656 2988 2656 3200 
Q 2656 3528 2436 3728 
Q 2216 3928 1850 3928 
Q 1569 3928 1234 3808 
Q 900 3688 519 3450 
L 519 4475 
Q 925 4609 1322 4679 
Q 1719 4750 2100 4750 
Q 2938 4750 3402 4381 
Q 3866 4013 3866 3353 
Q 3866 2972 3669 2642 
Q 3472 2313 2841 1759 
L 1844 884 
z
" transform="scale(0.015625)"/>
     </defs>
     <use xlink:href="#DejaVuSans-Bold-36"/>
     <use xlink:href="#DejaVuSans-Bold-30" x="69.580078"/>
     <use xlink:href="#DejaVuSans-Bold-32" x="139.160156"/>
     <use xlink:href="#DejaVuSans-Bold-35" x="208.740234"/>
     <use xlink:href="#DejaVuSans-Bold-30" x="278.320312"/>
     <use xlink:href="#DejaVuSans-Bold-78" x="347.900391"/>
    </g>
   </g>
   <g id="text_38">
    <!-- 20000x -->
    <g style="fill: #dc2626" transform="translate(862.014379 85.897598) scale(0.07 -0.07)">
     <use xlink:href="#DejaVuSans-Bold-32"/>
     <use xlink:href="#DejaVuSans-Bold-30" x="69.580078"/>
     <use xlink:href="#DejaVuSans-Bold-30" x="139.160156"/>
     <use xlink:href="#DejaVuSans-Bold-30" x="208.740234"/>
     <use xlink:href="#DejaVuSans-Bold-30" x="278.320312"/>
     <use xlink:href="#DejaVuSans-Bold-78" x="347.900391"/>
    </g>
   </g>
   <g id="text_39">
    <!-- 2.1x -->
    <g style="fill: #047857" transform="translate(729.303448 118.872655) scale(0.065 -0.065)">
     <defs>
      <path id="DejaVuSans-Bold-2e" d="M 653 1209 
L 1778 1209 
L 1778 0 
L 653 0 
L 653 1209 
z
" transform="scale(0.015625)"/>
     </defs>
     <use xlink:href="#DejaVuSans-Bold-32"/>
     <use xlink:href="#DejaVuSans-Bold-2e" x="69.580078"/>
     <use xlink:href="#DejaVuSans-Bold-31" x="107.568359"/>
     <use xlink:href="#DejaVuSans-Bold-78" x="177.148438"/>
    </g>
    <!-- faster -->
    <g style="fill: #047857" transform="translate(726.255049 126.151233) scale(0.065 -0.065)">
     <defs>
      <path id="DejaVuSans-Bold-66" d="M 2841 4863 
L 2841 4128 
L 2222 4128 
Q 1984 4128 1890 4042 
Q 1797 3956 1797 3744 
L 1797 3500 
L 2753 3500 
L 2753 2700 
L 1797 2700 
L 1797 0 
L 678 0 
L 678 2700 
L 122 2700 
L 122 3500 
L 678 3500 
L 678 3744 
Q 678 4316 997 4589 
Q 1316 4863 1984 4863 
L 2841 4863 
z
" transform="scale(0.015625)"/>
      <path id="DejaVuSans-Bold-61" d="M 2106 1575 
Q 1756 1575 1579 1456 
Q 1403 1338 1403 1106 
Q 1403 894 1545 773 
Q 1688 653 1941 653 
Q 2256 653 2472 879 
Q 2688 1106 2688 1447 
L 2688 1575 
L 2106 1575 
z
M 3816 1997 
L 3816 0 
L 2688 0 
L 2688 519 
Q 2463 200 2181 54 
Q 1900 -91 1497 -91 
Q 953 -91 614 226 
Q 275 544 275 1050 
Q 275 1666 698 1953 
Q 1122 2241 2028 2241 
L 2688 2241 
L 2688 2328 
Q 2688 2594 2478 2717 
Q 2269 2841 1825 2841 
Q 1466 2841 1156 2769 
Q 847 2697 581 2553 
L 581 3406 
Q 941 3494 1303 3539 
Q 1666 3584 2028 3584 
Q 2975 3584 3395 3211 
Q 3816 2838 3816 1997 
z
" transform="scale(0.015625)"/>
      <path id="DejaVuSans-Bold-73" d="M 3272 3391 
L 3272 2541 
Q 2913 2691 2578 2766 
Q 2244 2841 1947 2841 
Q 1628 2841 1473 2761 
Q 1319 2681 1319 2516 
Q 1319 2381 1436 2309 
Q 1553 2238 1856 2203 
L 2053 2175 
Q 2913 2066 3209 1816 
Q 3506 1566 3506 1031 
Q 3506 472 3093 190 
Q 2681 -91 1863 -91 
Q 1516 -91 1145 -36 
Q 775 19 384 128 
L 384 978 
Q 719 816 1070 734 
Q 1422 653 1784 653 
Q 2113 653 2278 743 
Q 2444 834 2444 1013 
Q 2444 1163 2330 1236 
Q 2216 1309 1875 1350 
L 1678 1375 
Q 931 1469 631 1722 
Q 331 1975 331 2491 
Q 331 3047 712 3315 
Q 1094 3584 1881 3584 
Q 2191 3584 2531 3537 
Q 2872 3491 3272 3391 
z
" transform="scale(0.015625)"/>
      <path id="DejaVuSans-Bold-74" d="M 1759 4494 
L 1759 3500 
L 2913 3500 
L 2913 2700 
L 1759 2700 
L 1759 1216 
Q 1759 972 1856 886 
Q 1953 800 2241 800 
L 2816 800 
L 2816 0 
L 1856 0 
Q 1194 0 917 276 
Q 641 553 641 1216 
L 641 2700 
L 84 2700 
L 84 3500 
L 641 3500 
L 641 4494 
L 1759 4494 
z
" transform="scale(0.015625)"/>
      <path id="DejaVuSans-Bold-72" d="M 3138 2547 
Q 2991 2616 2845 2648 
Q 2700 2681 2553 2681 
Q 2122 2681 1889 2404 
Q 1656 2128 1656 1613 
L 1656 0 
L 538 0 
L 538 3500 
L 1656 3500 
L 1656 2925 
Q 1872 3269 2151 3426 
Q 2431 3584 2822 3584 
Q 2878 3584 2943 3579 
Q 3009 3575 3134 3559 
L 3138 2547 
z
" transform="scale(0.015625)"/>
     </defs>
     <use xlink:href="#DejaVuSans-Bold-66"/>
     <use xlink:href="#DejaVuSans-Bold-61" x="43.505859"/>
     <use xlink:href="#DejaVuSans-Bold-73" x="110.986328"/>
     <use xlink:href="#DejaVuSans-Bold-74" x="170.507812"/>
     <use xlink:href="#DejaVuSans-Bold-65" x="218.310547"/>
     <use xlink:href="#DejaVuSans-Bold-72" x="286.132812"/>
    </g>
   </g>
   <g id="text_40">
    <!-- 0.7x -->
    <g style="fill: #047857" transform="translate(888.493485 106.876816) scale(0.065 -0.065)">
     <defs>
      <path id="DejaVuSans-Bold-37" d="M 428 4666 
L 3944 4666 
L 3944 3988 
L 2125 0 
L 953 0 
L 2675 3781 
L 428 3781 
L 428 4666 
z
" transform="scale(0.015625)"/>
     </defs>
     <use xlink:href="#DejaVuSans-Bold-30"/>
     <use xlink:href="#DejaVuSans-Bold-2e" x="69.580078"/>
     <use xlink:href="#DejaVuSans-Bold-37" x="107.568359"/>
     <use xlink:href="#DejaVuSans-Bold-78" x="177.148438"/>
    </g>
    <!-- faster -->
    <g style="fill: #047857" transform="translate(885.445087 114.155394) scale(0.065 -0.065)">
     <use xlink:href="#DejaVuSans-Bold-66"/>
     <use xlink:href="#DejaVuSans-Bold-61" x="43.505859"/>
     <use xlink:href="#DejaVuSans-Bold-73" x="110.986328"/>
     <use xlink:href="#DejaVuSans-Bold-74" x="170.507812"/>
     <use xlink:href="#DejaVuSans-Bold-65" x="218.310547"/>
     <use xlink:href="#DejaVuSans-Bold-72" x="286.132812"/>
    </g>
   </g>
   <g id="text_41">
    <!-- Simulation Wall Time -->
    <g style="fill: #262626" transform="translate(645.720201 44.64) scale(0.12 -0.12)">
     <defs>
      <path id="DejaVuSans-Bold-53" d="M 3834 4519 
L 3834 3531 
Q 3450 3703 3084 3790 
Q 2719 3878 2394 3878 
Q 1963 3878 1756 3759 
Q 1550 3641 1550 3391 
Q 1550 3203 1689 3098 
Q 1828 2994 2194 2919 
L 2706 2816 
Q 3484 2659 3812 2340 
Q 4141 2022 4141 1434 
Q 4141 663 3683 286 
Q 3225 -91 2284 -91 
Q 1841 -91 1394 -6 
Q 947 78 500 244 
L 500 1259 
Q 947 1022 1364 901 
Q 1781 781 2169 781 
Q 2563 781 2772 912 
Q 2981 1044 2981 1288 
Q 2981 1506 2839 1625 
Q 2697 1744 2272 1838 
L 1806 1941 
Q 1106 2091 782 2419 
Q 459 2747 459 3303 
Q 459 4000 909 4375 
Q 1359 4750 2203 4750 
Q 2588 4750 2994 4692 
Q 3400 4634 3834 4519 
z
" transform="scale(0.015625)"/>
      <path id="DejaVuSans-Bold-75" d="M 500 1363 
L 500 3500 
L 1625 3500 
L 1625 3150 
Q 1625 2866 1622 2436 
Q 1619 2006 1619 1863 
Q 1619 1441 1641 1255 
Q 1663 1069 1716 984 
Q 1784 875 1895 815 
Q 2006 756 2150 756 
Q 2500 756 2700 1025 
Q 2900 1294 2900 1772 
L 2900 3500 
L 4019 3500 
L 4019 0 
L 2900 0 
L 2900 506 
Q 2647 200 2364 54 
Q 2081 -91 1741 -91 
Q 1134 -91 817 281 
Q 500 653 500 1363 
z
" transform="scale(0.015625)"/>
      <path id="DejaVuSans-Bold-6e" d="M 4056 2131 
L 4056 0 
L 2931 0 
L 2931 347 
L 2931 1631 
Q 2931 2084 2911 2256 
Q 2891 2428 2841 2509 
Q 2775 2619 2662 2680 
Q 2550 2741 2406 2741 
Q 2056 2741 1856 2470 
Q 1656 2200 1656 1722 
L 1656 0 
L 538 0 
L 538 3500 
L 1656 3500 
L 1656 2988 
Q 1909 3294 2193 3439 
Q 2478 3584 2822 3584 
Q 3428 3584 3742 3212 
Q 4056 2841 4056 2131 
z
" transform="scale(0.015625)"/>
      <path id="DejaVuSans-Bold-57" d="M 191 4666 
L 1344 4666 
L 2150 1275 
L 2950 4666 
L 4109 4666 
L 4909 1275 
L 5716 4666 
L 6859 4666 
L 5759 0 
L 4372 0 
L 3525 3547 
L 2688 0 
L 1300 0 
L 191 4666 
z
" transform="scale(0.015625)"/>
     </defs>
     <use xlink:href="#DejaVuSans-Bold-53"/>
     <use xlink:href="#DejaVuSans-Bold-69" x="72.021484"/>
     <use xlink:href="#DejaVuSans-Bold-6d" x="106.298828"/>
     <use xlink:href="#DejaVuSans-Bold-75" x="210.498047"/>
     <use xlink:href="#DejaVuSans-Bold-6c" x="281.689453"/>
     <use xlink:href="#DejaVuSans-Bold-61" x="315.966797"/>
     <use xlink:href="#DejaVuSans-Bold-74" x="383.447266"/>
     <use xlink:href="#DejaVuSans-Bold-69" x="431.25"/>
     <use xlink:href="#DejaVuSans-Bold-6f" x="465.527344"/>
     <use xlink:href="#DejaVuSans-Bold-6e" x="534.228516"/>
     <use xlink:href="#DejaVuSans-Bold-20" x="605.419922"/>
     <use xlink:href="#DejaVuSans-Bold-57" x="640.234375"/>
     <use xlink:href="#DejaVuSans-Bold-61" x="746.912109"/>
     <use xlink:href="#DejaVuSans-Bold-6c" x="814.392578"/>
     <use xlink:href="#DejaVuSans-Bold-6c" x="848.669922"/>
     <use xlink:href="#DejaVuSans-Bold-20" x="882.947266"/>
     <use xlink:href="#DejaVuSans-Bold-54" x="917.761719"/>
     <use xlink:href="#DejaVuSans-Bold-69" x="985.974609"/>
     <use xlink:href="#DejaVuSans-Bold-6d" x="1020.251953"/>
     <use xlink:href="#DejaVuSans-Bold-65" x="1124.451172"/>
    </g>
   </g>
   <g id="legend_2">
    <g id="patch_42">
     <path d="M 516.516027 63.91875 
L 532.516027 63.91875 
L 532.516027 58.31875 
L 516.516027 58.31875 
z
" style="fill: #f59e0b; opacity: 0.85"/>
    </g>
    <g id="text_42">
     <!-- Xcelium -->
     <g style="fill: #262626" transform="translate(538.916027 63.91875) scale(0.08 -0.08)">
      <use xlink:href="#DejaVuSans-58"/>
      <use xlink:href="#DejaVuSans-63" x="68.505859"/>
      <use xlink:href="#DejaVuSans-65" x="123.486328"/>
      <use xlink:href="#DejaVuSans-6c" x="185.009766"/>
      <use xlink:href="#DejaVuSans-69" x="212.792969"/>
      <use xlink:href="#DejaVuSans-75" x="240.576172"/>
      <use xlink:href="#DejaVuSans-6d" x="303.955078"/>
     </g>
    </g>
    <g id="patch_43">
     <path d="M 516.516027 75.66125 
L 532.516027 75.66125 
L 532.516027 70.06125 
L 516.516027 70.06125 
z
" style="fill: #2563eb; opacity: 0.85"/>
    </g>
    <g id="text_43">
     <!-- circt interpret -->
     <g style="fill: #262626" transform="translate(538.916027 75.66125) scale(0.08 -0.08)">
      <use xlink:href="#DejaVuSans-63"/>
      <use xlink:href="#DejaVuSans-69" x="54.980469"/>
      <use xlink:href="#DejaVuSans-72" x="82.763672"/>
      <use xlink:href="#DejaVuSans-63" x="121.626953"/>
      <use xlink:href="#DejaVuSans-74" x="176.607422"/>
      <use xlink:href="#DejaVuSans-20" x="215.816406"/>
      <use xlink:href="#DejaVuSans-69" x="247.603516"/>
      <use xlink:href="#DejaVuSans-6e" x="275.386719"/>
      <use xlink:href="#DejaVuSans-74" x="338.765625"/>
      <use xlink:href="#DejaVuSans-65" x="377.974609"/>
      <use xlink:href="#DejaVuSans-72" x="439.498047"/>
      <use xlink:href="#DejaVuSans-70" x="480.611328"/>
      <use xlink:href="#DejaVuSans-72" x="544.087891"/>
      <use xlink:href="#DejaVuSans-65" x="582.951172"/>
      <use xlink:href="#DejaVuSans-74" x="644.474609"/>
     </g>
    </g>
    <g id="patch_44">
     <path d="M 516.516027 87.40375 
L 532.516027 87.40375 
L 532.516027 81.80375 
L 516.516027 81.80375 
z
" style="fill: #10b981; opacity: 0.85"/>
    </g>
    <g id="text_44">
     <!-- circt compile -->
     <g style="fill: #262626" transform="translate(538.916027 87.40375) scale(0.08 -0.08)">
      <use xlink:href="#DejaVuSans-63"/>
      <use xlink:href="#DejaVuSans-69" x="54.980469"/>
      <use xlink:href="#DejaVuSans-72" x="82.763672"/>
      <use xlink:href="#DejaVuSans-63" x="121.626953"/>
      <use xlink:href="#DejaVuSans-74" x="176.607422"/>
      <use xlink:href="#DejaVuSans-20" x="215.816406"/>
      <use xlink:href="#DejaVuSans-63" x="247.603516"/>
      <use xlink:href="#DejaVuSans-6f" x="302.583984"/>
      <use xlink:href="#DejaVuSans-6d" x="363.765625"/>
      <use xlink:href="#DejaVuSans-70" x="461.177734"/>
      <use xlink:href="#DejaVuSans-69" x="524.654297"/>
      <use xlink:href="#DejaVuSans-6c" x="552.4375"/>
      <use xlink:href="#DejaVuSans-65" x="580.220703"/>
     </g>
    </g>
   </g>
  </g>
  <g id="text_45">
   <!-- Performance: circt-sim vs Xcelium -->
   <g style="fill: #262626" transform="translate(342.636328 3.397969) scale(0.13 -0.13)">
    <defs>
     <path id="DejaVuSans-Bold-50" d="M 588 4666 
L 2584 4666 
Q 3475 4666 3951 4270 
Q 4428 3875 4428 3144 
Q 4428 2409 3951 2014 
Q 3475 1619 2584 1619 
L 1791 1619 
L 1791 0 
L 588 0 
L 588 4666 
z
M 1791 3794 
L 1791 2491 
L 2456 2491 
Q 2806 2491 2997 2661 
Q 3188 2831 3188 3144 
Q 3188 3456 2997 3625 
Q 2806 3794 2456 3794 
L 1791 3794 
z
" transform="scale(0.015625)"/>
     <path id="DejaVuSans-Bold-63" d="M 3366 3391 
L 3366 2478 
Q 3138 2634 2908 2709 
Q 2678 2784 2431 2784 
Q 1963 2784 1702 2511 
Q 1441 2238 1441 1747 
Q 1441 1256 1702 982 
Q 1963 709 2431 709 
Q 2694 709 2930 787 
Q 3166 866 3366 1019 
L 3366 103 
Q 3103 6 2833 -42 
Q 2563 -91 2291 -91 
Q 1344 -91 809 395 
Q 275 881 275 1747 
Q 275 2613 809 3098 
Q 1344 3584 2291 3584 
Q 2566 3584 2833 3536 
Q 3100 3488 3366 3391 
z
" transform="scale(0.015625)"/>
     <path id="DejaVuSans-Bold-3a" d="M 716 3500 
L 1844 3500 
L 1844 2291 
L 716 2291 
L 716 3500 
z
M 716 1209 
L 1844 1209 
L 1844 0 
L 716 0 
L 716 1209 
z
" transform="scale(0.015625)"/>
     <path id="DejaVuSans-Bold-2d" d="M 347 2297 
L 2309 2297 
L 2309 1388 
L 347 1388 
L 347 2297 
z
" transform="scale(0.015625)"/>
     <path id="DejaVuSans-Bold-76" d="M 97 3500 
L 1216 3500 
L 2088 1081 
L 2956 3500 
L 4078 3500 
L 2700 0 
L 1472 0 
L 97 3500 
z
" transform="scale(0.015625)"/>
     <path id="DejaVuSans-Bold-58" d="M 3188 2381 
L 4806 0 
L 3553 0 
L 2463 1594 
L 1381 0 
L 122 0 
L 1741 2381 
L 184 4666 
L 1441 4666 
L 2463 3163 
L 3481 4666 
L 4744 4666 
L 3188 2381 
z
" transform="scale(0.015625)"/>
    </defs>
    <use xlink:href="#DejaVuSans-Bold-50"/>
    <use xlink:href="#DejaVuSans-Bold-65" x="73.291016"/>
    <use xlink:href="#DejaVuSans-Bold-72" x="141.113281"/>
    <use xlink:href="#DejaVuSans-Bold-66" x="190.429688"/>
    <use xlink:href="#DejaVuSans-Bold-6f" x="233.935547"/>
    <use xlink:href="#DejaVuSans-Bold-72" x="302.636719"/>
    <use xlink:href="#DejaVuSans-Bold-6d" x="351.953125"/>
    <use xlink:href="#DejaVuSans-Bold-61" x="456.152344"/>
    <use xlink:href="#DejaVuSans-Bold-6e" x="523.632812"/>
    <use xlink:href="#DejaVuSans-Bold-63" x="594.824219"/>
    <use xlink:href="#DejaVuSans-Bold-65" x="654.101562"/>
    <use xlink:href="#DejaVuSans-Bold-3a" x="721.923828"/>
    <use xlink:href="#DejaVuSans-Bold-20" x="761.914062"/>
    <use xlink:href="#DejaVuSans-Bold-63" x="796.728516"/>
    <use xlink:href="#DejaVuSans-Bold-69" x="856.005859"/>
    <use xlink:href="#DejaVuSans-Bold-72" x="890.283203"/>
    <use xlink:href="#DejaVuSans-Bold-63" x="939.599609"/>
    <use xlink:href="#DejaVuSans-Bold-74" x="998.876953"/>
    <use xlink:href="#DejaVuSans-Bold-2d" x="1046.679688"/>
    <use xlink:href="#DejaVuSans-Bold-73" x="1088.183594"/>
    <use xlink:href="#DejaVuSans-Bold-69" x="1147.705078"/>
    <use xlink:href="#DejaVuSans-Bold-6d" x="1181.982422"/>
    <use xlink:href="#DejaVuSans-Bold-20" x="1286.181641"/>
    <use xlink:href="#DejaVuSans-Bold-76" x="1320.996094"/>
    <use xlink:href="#DejaVuSans-Bold-73" x="1386.181641"/>
    <use xlink:href="#DejaVuSans-Bold-20" x="1445.703125"/>
    <use xlink:href="#DejaVuSans-Bold-58" x="1480.517578"/>
    <use xlink:href="#DejaVuSans-Bold-63" x="1557.617188"/>
    <use xlink:href="#DejaVuSans-Bold-65" x="1616.894531"/>
    <use xlink:href="#DejaVuSans-Bold-6c" x="1684.716797"/>
    <use xlink:href="#DejaVuSans-Bold-69" x="1718.994141"/>
    <use xlink:href="#DejaVuSans-Bold-75" x="1753.271484"/>
    <use xlink:href="#DejaVuSans-Bold-6d" x="1824.462891"/>
   </g>
  </g>
 </g>
 <defs>
  <clipPath id="pfb99af367d">
   <rect x="41.07" y="50.64" width="415.883973" height="248.98"/>
  </clipPath>
  <clipPath id="p9f81c27032">
   <rect x="509.316027" y="50.64" width="415.883973" height="248.98"/>
  </clipPath>
 </defs>
</svg>
